<svg width="110" height="108" viewBox="0 0 110 108" fill="none" xmlns="http://www.w3.org/2000/svg">
<rect width="110" height="108" rx="12" fill="#272727"/>
<path d="M87.5271 33.6442C87.3137 33.5519 87.0599 33.5634 86.8754 33.748C85.9698 34.0075 85.0759 34.2901 84.1877 34.6073C83.9627 33.5 83.6455 32.4214 83.236 31.366C83.1265 31.0834 82.8381 30.8008 82.492 30.9219C81.4539 31.2852 80.4388 31.7005 79.4468 32.1677C79.1988 31.216 78.9969 30.2528 78.8412 29.2781C78.7777 28.8744 78.2759 28.7302 77.953 28.8917C76.9782 29.3819 76.0093 29.878 75.0346 30.3682C74.9077 29.9991 74.775 29.6357 74.6251 29.2724C74.3771 28.661 74.0887 27.5882 73.4716 27.2422C72.7795 26.85 72.1335 27.594 71.6375 27.9862C71.3318 28.2284 71.0261 28.4764 70.7147 28.7187C70.6397 28.5802 70.5647 28.4418 70.4898 28.3092C70.063 27.5652 69.5727 26.4809 68.8864 25.9445C68.1827 25.3966 67.5829 25.9445 67.0292 26.4059C66.4294 26.9134 65.8296 27.4152 65.2298 27.9228C64.7049 27.1672 64.1974 26.3944 63.7187 25.61C63.5168 25.2812 63.0554 25.1774 62.7613 25.4658C62.1153 26.1002 61.4693 26.7346 60.8234 27.3691L60.1659 26.5674C59.7679 26.0887 59.2488 25.0794 58.5567 25.0044C57.8704 24.9294 57.3571 25.8349 56.9649 26.2732C56.59 26.6885 56.2151 27.1095 55.8344 27.5248L53.6139 25.4312C53.389 25.2178 52.9795 25.1543 52.7488 25.4139L50.7648 27.6632C50.0842 27.1268 49.4036 26.5847 48.7231 26.0483C48.452 25.8291 48.0598 26.0079 47.881 26.2502C47.31 27.023 46.7448 27.7959 46.1738 28.5687C45.3317 27.9458 44.4839 27.3229 43.6418 26.7C43.3996 26.5212 42.9324 26.6193 42.7998 26.9019C42.3441 27.8997 41.8885 28.8975 41.4271 29.8953L40.389 29.3416C39.8295 29.0417 38.9932 28.3726 38.3069 28.6149C37.6724 28.8398 37.6032 29.6126 37.4533 30.1721C37.2918 30.7835 37.1245 31.3948 36.963 32.0062C35.7749 31.7005 34.6329 31.2449 33.5544 30.6335C33.243 30.4547 32.9431 30.5758 32.77 30.795C32.522 30.893 32.3548 31.1353 32.4759 31.464C36.8534 43.1029 41.4963 54.6438 46.4045 66.0693C47.8002 69.3222 49.2191 72.5578 50.6609 75.7934C50.8743 76.2663 51.503 76.2317 51.8433 75.6549C52.0567 75.2916 52.3105 74.9571 52.5469 74.611C52.8815 75.0436 53.0545 75.5223 53.4697 75.8857C53.885 76.249 54.9059 74.5937 54.9059 74.5937C54.9059 74.5937 55.771 75.8856 56.1401 75.8683C56.5092 75.8453 57.1091 74.5706 57.1091 74.5706C57.1091 74.5706 58.0088 75.8107 58.4414 75.7645C58.8797 75.7242 59.8256 74.3169 59.8256 74.3169C59.8256 74.3169 60.6215 75.6434 61.1752 75.6203C61.7289 75.5973 62.6747 74.2188 62.6747 74.2188C62.6747 74.2188 62.9862 75.1532 63.1419 75.6203C63.3495 76.249 63.8571 75.8799 64.3416 75.2743C71.972 65.7175 87.256 36.5164 87.9539 35.1841C88.646 33.8518 88.0058 33.7653 87.5271 33.6442V33.6442Z" fill="#484848"/>
<path d="M50.6618 75.7992C51.1808 74.761 36.3006 31.764 33.5552 30.6451C30.8099 29.5262 14.58 36.7702 13.3342 40.0981C12.0884 43.4259 29.766 79.2597 33.561 80.9784C37.3503 82.6971 49.2083 78.7175 50.6675 75.7992H50.6618Z" fill="#3A3A3A"/>
<path d="M63.9205 75.73C64.1801 74.6457 85.2201 34.8554 87.4175 33.7192C89.6149 32.583 99.3102 38.76 99.3967 41.8168C99.4832 44.8678 78.4951 78.9021 75.421 80.6324C72.3469 82.3626 63.5745 77.1834 63.9263 75.73H63.9205Z" fill="#3A3A3A"/>
<path d="M38.6536 29.1166C38.6132 29.0128 38.4921 28.9609 38.3882 29.0071C38.2844 29.0474 38.2325 29.1686 38.2787 29.2724C43.9366 43.1202 48.4757 57.7294 52.1669 73.9305C52.19 74.0227 52.2707 74.0862 52.363 74.0862C52.3803 74.0862 52.3918 74.0862 52.4091 74.0862C52.5187 74.0631 52.5879 73.9535 52.5649 73.844C48.8679 57.6141 44.323 42.9876 38.6536 29.1224V29.1166Z" fill="white"/>
<path d="M58.4437 25.4139C58.3283 25.4139 58.236 25.5004 58.236 25.61L56.9902 73.8786C56.9902 73.9881 57.0767 74.0862 57.1863 74.0862C57.2959 74.0862 57.3882 73.9997 57.3882 73.8901L58.634 25.6215C58.634 25.5119 58.5475 25.4139 58.4379 25.4139H58.4437Z" fill="white"/>
<path d="M48.5683 26.4117C48.551 26.3021 48.4414 26.2271 48.3319 26.2444C48.2223 26.2617 48.1473 26.3713 48.1646 26.4809C50.4774 39.9366 52.5768 55.4513 54.5723 73.9074C54.5839 74.0112 54.6704 74.092 54.7742 74.092C54.78 74.092 54.7915 74.092 54.7973 74.092C54.9069 74.0804 54.9876 73.9766 54.9761 73.867C52.9805 55.3994 50.8811 39.8789 48.5683 26.4174V26.4117Z" fill="white"/>
<path d="M73.235 27.5018C73.1312 27.4614 73.0101 27.5191 72.9755 27.6229C68.6037 39.7867 64.278 54.9034 59.739 73.8325C59.7101 73.942 59.7794 74.0516 59.8889 74.0805C59.9062 74.0805 59.9235 74.0805 59.9351 74.0805C60.0274 74.0805 60.1081 74.017 60.1312 73.9247C64.6645 55.0072 68.9959 39.9078 73.3562 27.7556C73.3965 27.6518 73.3388 27.5306 73.235 27.496V27.5018Z" fill="white"/>
<path d="M82.6725 31.4294C82.5744 31.3717 82.4475 31.4063 82.3956 31.5044C76.9741 41.1477 70.676 54.5919 62.5783 73.8036C62.5322 73.9074 62.5783 74.0285 62.6879 74.0689C62.711 74.0804 62.7398 74.0862 62.7687 74.0862C62.8494 74.0862 62.9244 74.04 62.959 73.9593C71.0508 54.7591 77.3432 41.3323 82.759 31.7005C82.8166 31.6024 82.782 31.4755 82.684 31.4236L82.6725 31.4294Z" fill="white"/>
<path d="M65.0405 28.1593C64.9309 28.142 64.8271 28.2227 64.8098 28.3323L58.2348 74.9398C58.2175 75.0494 58.2982 75.1532 58.4078 75.1705C58.4193 75.1705 58.4251 75.1705 58.4366 75.1705C58.5347 75.1705 58.6212 75.0955 58.6385 74.9975L65.2135 28.39C65.2308 28.2804 65.15 28.1766 65.0405 28.1593V28.1593Z" fill="white"/>
<path d="M53.1808 25.8291C53.0713 25.8349 52.9847 25.9329 52.9905 26.0425L55.9839 74.9801C55.9896 75.0897 56.0819 75.1705 56.1857 75.1705H56.1973C56.3068 75.1647 56.3934 75.0666 56.3876 74.9571L53.3942 26.0195C53.3885 25.9099 53.2904 25.8234 53.1808 25.8291V25.8291Z" fill="white"/>
<path d="M43.4863 27.6344C43.4517 27.5248 43.3363 27.4671 43.2325 27.5017C43.1229 27.5363 43.0653 27.6517 43.0999 27.7555C47.3044 41.3496 50.7072 56.8008 53.4987 74.9974C53.516 75.0955 53.6026 75.1705 53.7006 75.1705C53.7121 75.1705 53.7237 75.1705 53.7294 75.1705C53.839 75.1532 53.914 75.0494 53.9025 74.9398C51.111 56.7259 47.7024 41.2515 43.4921 27.6401L43.4863 27.6344Z" fill="white"/>
<path d="M78.2482 29.5088C78.1443 29.4627 78.0232 29.5088 77.9771 29.6069C72.2672 41.8917 65.8595 60.0422 60.9052 74.4841C60.8706 74.5879 60.9225 74.7091 61.032 74.7437C61.0551 74.7494 61.0782 74.7552 61.0955 74.7552C61.182 74.7552 61.257 74.7033 61.2858 74.6168C66.2344 60.1864 72.6421 42.0475 78.3404 29.7799C78.3866 29.6761 78.3404 29.555 78.2424 29.5088H78.2482Z" fill="white"/>
<path d="M61.0622 64.5985C61.0622 64.5985 61.0853 64.5985 61.1026 64.5985C61.2007 64.5985 61.2814 64.5293 61.3045 64.4313L68.5428 26.4808C68.5658 26.3712 68.4908 26.2617 68.3813 26.2444C68.2717 26.2213 68.1621 26.2963 68.1448 26.4058L60.9065 64.3563C60.8835 64.4659 60.9584 64.5754 61.068 64.5927L61.0622 64.5985Z" fill="white"/>
<path d="M58.4251 67.517H58.4424C58.5462 67.517 58.6385 67.4363 58.6443 67.3267C59.9535 49.9837 61.3262 37.0009 62.9699 26.4809C62.9872 26.3714 62.9122 26.2675 62.8027 26.2502C62.6931 26.2329 62.5893 26.3079 62.572 26.4175C60.9282 36.949 59.5498 49.9433 58.2405 67.2978C58.2348 67.4074 58.3155 67.5055 58.4309 67.517H58.4251Z" fill="white"/>
<path d="M37.3158 32.6867C37.2696 32.5829 37.1485 32.5425 37.0447 32.5887C36.9409 32.6348 36.9005 32.7559 36.9467 32.8598C41.1858 42.0013 45.0443 52.7693 48.7528 65.7867C48.7759 65.8789 48.8624 65.9366 48.9489 65.9366C48.9662 65.9366 48.9835 65.9366 49.0066 65.9309C49.1162 65.902 49.1796 65.7867 49.145 65.6771C45.4307 52.6424 41.5607 41.8514 37.3158 32.6925V32.6867Z" fill="white"/>
<path d="M83.7557 35.0111C83.6576 34.9534 83.5365 34.988 83.4788 35.0861C78.7321 43.1837 73.3914 53.6922 67.1567 67.2286C67.1105 67.3324 67.1567 67.4535 67.2547 67.4997C67.2836 67.5112 67.3124 67.517 67.3412 67.517C67.4162 67.517 67.4912 67.4708 67.5258 67.3959C73.7547 53.8767 79.0839 43.374 83.8306 35.2879C83.8883 35.1899 83.8537 35.0688 83.7557 35.0111Z" fill="white"/>
<path d="M44.0823 74.4265C44.5321 73.5383 29.2251 36.9893 26.8835 36.0262C24.5418 35.063 17.6438 38.5177 16.5711 41.3554C15.4983 44.193 30.8746 76.3355 34.1102 77.8063C37.34 79.277 42.8307 76.9065 44.0823 74.4265Z" fill="white"/>
<path d="M28.141 38.4485C28.7235 38.1082 28.6428 37.4564 28.2564 37.2719C28.1295 37.1911 27.9507 37.1623 27.72 37.2257C25.9263 37.7217 24.1614 38.3273 22.4254 39.0483C21.7679 39.3194 21.8198 40.3056 22.5465 40.2364C24.5017 40.0518 26.3877 39.4809 28.1353 38.4485H28.141Z" fill="#0E0E0E"/>
<path d="M30.5708 41.8168C30.5189 41.5341 30.2709 41.3265 29.8383 41.4592C28.0792 42.0013 26.3663 42.6703 24.711 43.5009C23.9901 43.8585 24.1804 44.9254 25.0224 44.6717C26.7873 44.1353 28.5003 43.472 30.1671 42.6646C30.5881 42.4569 30.6862 42.0936 30.5766 41.8168H30.5708Z" fill="#0E0E0E"/>
<path d="M32.2246 46.823C32.5129 46.6442 32.5879 46.4192 32.5418 46.2231C32.7033 45.756 32.2649 45.2427 31.6247 45.5599C30.056 46.3385 28.4814 47.1113 26.9127 47.89C26.186 48.2476 26.382 49.2972 27.2241 49.055C29.0005 48.5417 30.65 47.7977 32.2303 46.823H32.2246Z" fill="#0E0E0E"/>
<path d="M34.161 51.2639C34.4436 51.0908 34.5705 50.8486 34.5763 50.6179C34.8416 50.1219 34.3917 49.499 33.7169 49.8623C31.9405 50.8082 30.1583 51.7541 28.3819 52.7C27.5226 53.1556 27.984 54.1419 28.8837 53.8016C30.7236 53.1153 32.4769 52.2674 34.1668 51.2639H34.161Z" fill="#0E0E0E"/>
<path d="M36.2335 55.7107C36.5392 55.5492 36.6719 55.3012 36.6719 55.0705C37.0294 54.5918 36.568 53.8939 35.8413 54.2227C34.1341 54.9955 32.4731 55.8549 30.8582 56.795C30.0276 57.2795 30.4429 58.2427 31.3599 57.8966C33.0325 57.268 34.6532 56.5355 36.2393 55.705L36.2335 55.7107Z" fill="#0E0E0E"/>
<path d="M38.4243 59.8633C38.8453 59.5864 38.8107 59.2115 38.5685 58.9924C38.4935 58.6579 38.1186 58.4041 37.6226 58.6233C35.5636 59.5461 33.5911 60.6304 31.7051 61.8531C30.938 62.3491 31.6532 63.1104 32.3741 62.8509C34.5139 62.0953 36.521 61.086 38.4243 59.8575V59.8633Z" fill="#0E0E0E"/>
<path d="M39.8997 64.7887C40.1304 64.6503 40.2284 64.4773 40.24 64.3158C40.6783 63.8083 40.2458 63.0181 39.5133 63.4103C37.6273 64.4081 35.7413 65.4059 33.8611 66.4037C33.0306 66.842 33.3939 67.8859 34.3167 67.5283C36.2604 66.7728 38.1175 65.8557 39.9055 64.7887H39.8997Z" fill="#0E0E0E"/>
<path d="M36.7645 71.6868C38.5063 70.839 40.1674 69.8931 41.765 68.8434C41.9899 68.6992 42.088 68.5147 42.0995 68.3417C42.4802 67.8283 41.8227 67.142 41.1133 67.5803C39.4118 68.6243 37.7162 69.674 36.0147 70.7179C35.1785 71.2312 35.9225 72.1021 36.7645 71.6926V71.6868Z" fill="#0E0E0E"/>
<path d="M39.2742 76.2201C40.7334 75.3954 42.7059 74.1265 43.4672 73.4805C44.2286 72.8403 43.6922 72.0156 42.8847 72.4135C41.2756 73.2037 39.678 74.0112 38.4552 75.3262C37.9477 75.8741 38.6513 76.5719 39.2742 76.2201V76.2201Z" fill="#0E0E0E"/>
<path d="M36.4006 54.9553L36.3429 54.8168L24.1445 60.9593L24.208 61.0977L36.4006 54.961V54.9553Z" fill="#0E0E0E"/>
<path d="M19.0469 49.6434L19.1045 49.7818L31.499 44.1123L31.4356 43.9739L19.0526 49.6376L19.0469 49.6434Z" fill="#0E0E0E"/>
<path d="M33.4813 48.3917C33.4583 48.3456 33.441 48.2994 33.4179 48.2533L21.0234 54.2631C21.0465 54.3092 21.0638 54.3554 21.0869 54.4015L33.4813 48.3859V48.3917Z" fill="#0E0E0E"/>
<path d="M29.4846 40.0578C29.4616 40.0116 29.4385 39.9655 29.4154 39.9251L17.2344 44.8217C17.2517 44.8679 17.2632 44.9198 17.2805 44.9659L29.4846 40.0635V40.0578Z" fill="#0E0E0E"/>
<path d="M35.4094 52.6885C35.3863 52.6424 35.369 52.5963 35.346 52.5501L23.0957 58.7733C23.1188 58.8194 23.1361 58.8656 23.1591 58.9117L35.4036 52.6943L35.4094 52.6885Z" fill="#0E0E0E"/>
<path d="M16.537 42.0705C16.537 42.1225 16.5486 42.1744 16.5543 42.2263C20.4474 40.6748 24.3809 39.2387 28.3201 37.9352C28.2913 37.8891 28.2682 37.8429 28.2394 37.8026C24.3232 39.1002 20.4013 40.5248 16.5312 42.0705H16.537Z" fill="#0E0E0E"/>
<path d="M32.4731 46.1828L32.4096 46.0444L19.9863 51.8811L20.044 52.0196L32.4731 46.1828Z" fill="#0E0E0E"/>
<path d="M30.4598 41.9841C30.4367 41.9379 30.4136 41.8918 30.3905 41.8456C26.2495 43.4894 22.1026 45.2139 17.9961 46.9903C18.0134 47.0364 18.0307 47.0826 18.048 47.1345C22.1545 45.3523 26.3071 43.6278 30.454 41.9841H30.4598Z" fill="#0E0E0E"/>
<path d="M34.4213 50.4681L34.3579 50.3297L21.998 56.4259L22.0615 56.5644L34.4156 50.4681H34.4213Z" fill="#0E0E0E"/>
<path d="M41.8854 68.1168L41.8277 67.9726C38.2172 69.9336 34.6817 72.0329 31.25 74.2304C31.2788 74.2765 31.3019 74.3169 31.3307 74.363C34.7509 72.1714 38.2806 70.0777 41.8796 68.1168H41.8854Z" fill="#0E0E0E"/>
<path d="M41.0488 66.0175L40.9911 65.8733C37.2999 67.9092 33.6259 70.0086 30.0039 72.1426C30.027 72.1887 30.0558 72.2291 30.0789 72.2753C33.6951 70.147 37.3633 68.0477 41.0488 66.0175V66.0175Z" fill="#0E0E0E"/>
<path d="M42.8363 70.568L42.7786 70.4238L33.043 76.8142C33.0776 76.8546 33.1064 76.8949 33.141 76.9353L42.8363 70.5737V70.568Z" fill="#0E0E0E"/>
<path d="M34.957 78.0946C35.0262 78.1119 35.0955 78.1292 35.1647 78.1407C37.9446 76.2548 40.7476 74.3918 43.5737 72.5635C43.5564 72.5174 43.5391 72.4655 43.5218 72.4136C40.6496 74.2765 37.7889 76.174 34.9628 78.0946H34.957Z" fill="#0E0E0E"/>
<path d="M39.2155 61.5649L39.1578 61.4265L27.4785 67.5631C27.5016 67.6093 27.5247 67.6496 27.5477 67.6958L39.2155 61.5649Z" fill="#0E0E0E"/>
<path d="M25.2188 63.151L25.288 63.2894L37.3479 57.1528L37.2902 57.0143L25.2245 63.151H25.2188Z" fill="#0E0E0E"/>
<path d="M38.2469 59.2636C38.2296 59.2175 38.2065 59.1713 38.1892 59.1252C34.1634 61.0458 30.1723 63.0933 26.2734 65.2446C26.2965 65.2907 26.3196 65.3368 26.3426 65.3772C30.2357 63.2317 34.2269 61.1842 38.2469 59.2636Z" fill="#0E0E0E"/>
<path d="M40.1432 63.8084L40.0855 63.67L28.6484 69.7432C28.6715 69.7893 28.6946 69.8297 28.7234 69.8759L40.1489 63.8084H40.1432Z" fill="#0E0E0E"/>
<path d="M68.1542 71.9871C68.5291 71.3757 67.5948 70.7759 67.2199 71.3872C66.845 71.9986 67.7793 72.5984 68.1542 71.9871Z" fill="#EC8446"/>
<path d="M69.3183 70.0779C69.6932 69.4665 68.7588 68.8667 68.3839 69.4781C68.009 70.0894 68.9434 70.6892 69.3183 70.0779Z" fill="#EC8446"/>
<path d="M70.4843 68.1689C70.8592 67.5575 69.9248 66.9577 69.55 67.5691C69.1751 68.1804 70.1094 68.7802 70.4843 68.1689Z" fill="#EC8446"/>
<path d="M71.6503 66.2598C72.0252 65.6484 71.0909 65.0486 70.716 65.6599C70.3411 66.2713 71.2754 66.8711 71.6503 66.2598Z" fill="#EC8446"/>
<path d="M72.8144 64.3508C73.1893 63.7394 72.2549 63.1396 71.88 63.7509C71.5051 64.3623 72.4395 64.9621 72.8144 64.3508Z" fill="#EC8446"/>
<path d="M73.9784 62.4417C74.3533 61.8303 73.419 61.2305 73.0441 61.8419C72.6692 62.4532 73.6035 63.0531 73.9784 62.4417Z" fill="#EC8446"/>
<path d="M75.1386 60.5327C75.5135 59.9213 74.5791 59.3215 74.2043 59.9329C73.8294 60.5443 74.7637 61.1441 75.1386 60.5327Z" fill="#EC8446"/>
<path d="M76.3046 58.6236C76.6795 58.0122 75.7452 57.4124 75.3703 58.0238C74.9954 58.6351 75.9297 59.2349 76.3046 58.6236Z" fill="#EC8446"/>
<path d="M77.4687 56.7145C77.8436 56.1032 76.9092 55.5034 76.5343 56.1147C76.1594 56.7261 77.0938 57.3259 77.4687 56.7145Z" fill="#EC8446"/>
<path d="M78.6327 54.8055C79.0076 54.1942 78.0733 53.5944 77.6984 54.2057C77.3235 54.8171 78.2578 55.4169 78.6327 54.8055Z" fill="#EC8446"/>
<path d="M79.7988 52.8907C80.1736 52.2793 79.2393 51.6795 78.8644 52.2909C78.4895 52.9022 79.4239 53.502 79.7988 52.8907Z" fill="#EC8446"/>
<path d="M80.9648 50.9816C81.3397 50.3702 80.4053 49.7704 80.0304 50.3817C79.6555 50.9931 80.5899 51.5929 80.9648 50.9816Z" fill="#EC8446"/>
<path d="M82.123 49.0725C82.4979 48.4612 81.5635 47.8613 81.1886 48.4727C80.8137 49.084 81.7481 49.6839 82.123 49.0725Z" fill="#EC8446"/>
<path d="M83.289 47.1634C83.6639 46.552 82.7295 45.9522 82.3546 46.5636C81.9798 47.1749 82.9141 47.7748 83.289 47.1634Z" fill="#EC8446"/>
<path d="M84.453 45.2544C84.8279 44.643 83.8936 44.0432 83.5187 44.6546C83.1438 45.2659 84.0782 45.8658 84.453 45.2544Z" fill="#EC8446"/>
<path d="M85.6171 43.3453C85.992 42.734 85.0577 42.1341 84.6828 42.7455C84.3079 43.3569 85.2422 43.9567 85.6171 43.3453Z" fill="#EC8446"/>
<path d="M86.7831 41.4363C87.158 40.825 86.2237 40.2252 85.8488 40.8365C85.4739 41.4479 86.4082 42.0477 86.7831 41.4363Z" fill="#EC8446"/>
<path d="M87.9491 39.5272C88.324 38.9159 87.3897 38.316 87.0148 38.9274C86.6399 39.5388 87.5742 40.1386 87.9491 39.5272Z" fill="#EC8446"/>
<path d="M70.2304 71.9464C70.6053 71.3351 69.6709 70.7352 69.296 71.3466C68.9212 71.9579 69.8555 72.5578 70.2304 71.9464Z" fill="#EC8446"/>
<path d="M71.3945 70.0373C71.7693 69.4259 70.835 68.8261 70.4601 69.4375C70.0852 70.0488 71.0196 70.6487 71.3945 70.0373Z" fill="#EC8446"/>
<path d="M72.5605 68.1225C72.9354 67.5112 72.001 66.9114 71.6261 67.5227C71.2512 68.1341 72.1856 68.7339 72.5605 68.1225Z" fill="#EC8446"/>
<path d="M73.7265 66.2136C74.1014 65.6022 73.167 65.0024 72.7921 65.6137C72.4173 66.2251 73.3516 66.8249 73.7265 66.2136Z" fill="#EC8446"/>
<path d="M74.8905 64.3045C75.2654 63.6931 74.3311 63.0933 73.9562 63.7047C73.5813 64.316 74.5157 64.9159 74.8905 64.3045Z" fill="#EC8446"/>
<path d="M76.0546 62.3954C76.4295 61.784 75.4952 61.1842 75.1203 61.7956C74.7454 62.4069 75.6797 63.0067 76.0546 62.3954Z" fill="#EC8446"/>
<path d="M77.2148 60.4864C77.5897 59.875 76.6553 59.2752 76.2804 59.8866C75.9055 60.4979 76.8399 61.0978 77.2148 60.4864Z" fill="#EC8446"/>
<path d="M78.3808 58.5773C78.7557 57.966 77.8213 57.3661 77.4464 57.9775C77.0715 58.5889 78.0059 59.1887 78.3808 58.5773Z" fill="#EC8446"/>
<path d="M79.5448 56.6683C79.9197 56.057 78.9854 55.4571 78.6105 56.0685C78.2356 56.6799 79.17 57.2797 79.5448 56.6683Z" fill="#EC8446"/>
<path d="M80.7089 54.7592C81.0838 54.1479 80.1495 53.548 79.7746 54.1594C79.3997 54.7707 80.334 55.3706 80.7089 54.7592Z" fill="#EC8446"/>
<path d="M81.8749 52.8502C82.2498 52.2388 81.3155 51.639 80.9406 52.2503C80.5657 52.8617 81.5 53.4615 81.8749 52.8502Z" fill="#EC8446"/>
<path d="M83.0409 50.9412C83.4158 50.3298 82.4815 49.73 82.1066 50.3413C81.7317 50.9527 82.666 51.5525 83.0409 50.9412Z" fill="#EC8446"/>
<path d="M84.1991 49.032C84.574 48.4207 83.6397 47.8209 83.2648 48.4322C82.8899 49.0436 83.8243 49.6434 84.1991 49.032Z" fill="#EC8446"/>
<path d="M85.3652 47.123C85.7401 46.5116 84.8057 45.9118 84.4308 46.5232C84.0559 47.1345 84.9903 47.7343 85.3652 47.123Z" fill="#EC8446"/>
<path d="M86.5292 45.2081C86.9041 44.5968 85.9698 43.9969 85.5949 44.6083C85.22 45.2197 86.1543 45.8195 86.5292 45.2081Z" fill="#EC8446"/>
<path d="M87.6933 43.2991C88.0682 42.6878 87.1338 42.0879 86.7589 42.6993C86.384 43.3107 87.3184 43.9105 87.6933 43.2991Z" fill="#EC8446"/>
<path d="M88.8593 41.39C89.2342 40.7786 88.2998 40.1788 87.925 40.7902C87.5501 41.4016 88.4844 42.0014 88.8593 41.39Z" fill="#EC8446"/>
<path d="M71.1405 73.8094C71.5154 73.198 70.5811 72.5982 70.2062 73.2096C69.8313 73.8209 70.7657 74.4207 71.1405 73.8094Z" fill="#EC8446"/>
<path d="M72.3046 71.9003C72.6795 71.289 71.7452 70.6891 71.3703 71.3005C70.9954 71.9119 71.9297 72.5117 72.3046 71.9003Z" fill="#EC8446"/>
<path d="M73.4706 69.9913C73.8455 69.3799 72.9112 68.7801 72.5363 69.3914C72.1614 70.0028 73.0957 70.6026 73.4706 69.9913Z" fill="#EC8446"/>
<path d="M74.6366 68.0821C75.0115 67.4708 74.0772 66.871 73.7023 67.4823C73.3274 68.0937 74.2617 68.6935 74.6366 68.0821Z" fill="#EC8446"/>
<path d="M75.8007 66.1731C76.1756 65.5618 75.2413 64.962 74.8664 65.5733C74.4915 66.1847 75.4258 66.7845 75.8007 66.1731Z" fill="#EC8446"/>
<path d="M76.9648 64.2641C77.3397 63.6527 76.4053 63.0529 76.0304 63.6643C75.6555 64.2756 76.5899 64.8754 76.9648 64.2641Z" fill="#EC8446"/>
<path d="M78.1249 62.3551C78.4998 61.7437 77.5655 61.1439 77.1906 61.7553C76.8157 62.3666 77.75 62.9665 78.1249 62.3551Z" fill="#EC8446"/>
<path d="M79.2909 60.446C79.6658 59.8346 78.7315 59.2348 78.3566 59.8462C77.9817 60.4575 78.916 61.0573 79.2909 60.446Z" fill="#EC8446"/>
<path d="M80.455 58.5311C80.8299 57.9198 79.8955 57.3199 79.5207 57.9313C79.1458 58.5427 80.0801 59.1425 80.455 58.5311Z" fill="#EC8446"/>
<path d="M81.6191 56.622C81.9939 56.0106 81.0596 55.4108 80.6847 56.0222C80.3098 56.6335 81.2442 57.2334 81.6191 56.622Z" fill="#EC8446"/>
<path d="M82.7851 54.7131C83.16 54.1017 82.2256 53.5019 81.8507 54.1133C81.4758 54.7246 82.4102 55.3244 82.7851 54.7131Z" fill="#EC8446"/>
<path d="M83.9511 52.804C84.326 52.1926 83.3916 51.5928 83.0168 52.2041C82.6419 52.8155 83.5762 53.4153 83.9511 52.804Z" fill="#EC8446"/>
<path d="M85.1093 50.8948C85.4842 50.2835 84.5498 49.6836 84.175 50.295C83.8001 50.9064 84.7344 51.5062 85.1093 50.8948Z" fill="#EC8446"/>
<path d="M86.2753 48.9858C86.6502 48.3744 85.7159 47.7746 85.341 48.386C84.9661 48.9973 85.9004 49.5971 86.2753 48.9858Z" fill="#EC8446"/>
<path d="M87.4394 47.0768C87.8143 46.4654 86.8799 45.8656 86.505 46.477C86.1301 47.0883 87.0645 47.6881 87.4394 47.0768Z" fill="#EC8446"/>
<path d="M88.6034 45.1677C88.9783 44.5564 88.044 43.9565 87.6691 44.5679C87.2942 45.1793 88.2285 45.7791 88.6034 45.1677Z" fill="#EC8446"/>
<path d="M89.7695 43.2587C90.1443 42.6473 89.21 42.0475 88.8351 42.6588C88.4602 43.2702 89.3946 43.87 89.7695 43.2587Z" fill="#EC8446"/>
<path d="M90.9355 41.3496C91.3104 40.7383 90.376 40.1384 90.0011 40.7498C89.6262 41.3611 90.5606 41.961 90.9355 41.3496Z" fill="#EC8446"/>
<path d="M73.2187 73.7633C73.5936 73.1519 72.6592 72.5521 72.2843 73.1635C71.9094 73.7748 72.8438 74.3747 73.2187 73.7633Z" fill="#EC8446"/>
<path d="M74.3827 71.8543C74.7576 71.2429 73.8233 70.6431 73.4484 71.2544C73.0735 71.8658 74.0078 72.4656 74.3827 71.8543Z" fill="#EC8446"/>
<path d="M75.5488 69.9451C75.9236 69.3338 74.9893 68.7339 74.6144 69.3453C74.2395 69.9567 75.1739 70.5565 75.5488 69.9451Z" fill="#EC8446"/>
<path d="M76.7148 68.0361C77.0897 67.4248 76.1553 66.8249 75.7804 67.4363C75.4055 68.0477 76.3399 68.6475 76.7148 68.0361Z" fill="#EC8446"/>
<path d="M77.8788 66.1271C78.2537 65.5157 77.3194 64.9159 76.9445 65.5272C76.5696 66.1386 77.5039 66.7384 77.8788 66.1271Z" fill="#EC8446"/>
<path d="M79.0429 64.218C79.4178 63.6067 78.4834 63.0068 78.1085 63.6182C77.7337 64.2295 78.668 64.8294 79.0429 64.218Z" fill="#EC8446"/>
<path d="M80.203 62.309C80.5779 61.6976 79.6436 61.0978 79.2687 61.7091C78.8938 62.3205 79.8282 62.9203 80.203 62.309Z" fill="#EC8446"/>
<path d="M81.3691 60.3998C81.7439 59.7885 80.8096 59.1887 80.4347 59.8C80.0598 60.4114 80.9942 61.0112 81.3691 60.3998Z" fill="#EC8446"/>
<path d="M82.5331 58.4909C82.908 57.8795 81.9737 57.2797 81.5988 57.8911C81.2239 58.5024 82.1582 59.1023 82.5331 58.4909Z" fill="#EC8446"/>
<path d="M83.6972 56.5819C84.0721 55.9705 83.1377 55.3707 82.7628 55.982C82.388 56.5934 83.3223 57.1932 83.6972 56.5819Z" fill="#EC8446"/>
<path d="M84.8632 54.6727C85.2381 54.0614 84.3038 53.4615 83.9289 54.0729C83.554 54.6843 84.4883 55.2841 84.8632 54.6727Z" fill="#EC8446"/>
<path d="M86.0292 52.7636C86.4041 52.1522 85.4698 51.5524 85.0949 52.1638C84.72 52.7751 85.6543 53.375 86.0292 52.7636Z" fill="#EC8446"/>
<path d="M87.1874 50.8488C87.5623 50.2374 86.628 49.6376 86.2531 50.2489C85.8782 50.8603 86.8125 51.4601 87.1874 50.8488Z" fill="#EC8446"/>
<path d="M88.3534 48.9398C88.7283 48.3284 87.794 47.7286 87.4191 48.3399C87.0442 48.9513 87.9785 49.5511 88.3534 48.9398Z" fill="#EC8446"/>
<path d="M89.5175 47.0307C89.8924 46.4193 88.958 45.8195 88.5832 46.4309C88.2083 47.0422 89.1426 47.642 89.5175 47.0307Z" fill="#EC8446"/>
<path d="M90.6816 45.1216C91.0565 44.5103 90.1221 43.9105 89.7472 44.5218C89.3723 45.1332 90.3067 45.733 90.6816 45.1216Z" fill="#EC8446"/>
<path d="M91.8476 43.2126C92.2225 42.6012 91.2881 42.0014 90.9132 42.6128C90.5383 43.2241 91.4727 43.8239 91.8476 43.2126Z" fill="#EC8446"/>
<path d="M74.1308 75.6321C74.5057 75.0207 73.5713 74.4209 73.1964 75.0323C72.8215 75.6436 73.7559 76.2434 74.1308 75.6321Z" fill="#EC8446"/>
<path d="M75.2948 73.723C75.6697 73.1117 74.7354 72.5118 74.3605 73.1232C73.9856 73.7346 74.9199 74.3344 75.2948 73.723Z" fill="#EC8446"/>
<path d="M76.4609 71.814C76.8358 71.2026 75.9014 70.6028 75.5265 71.2141C75.1516 71.8255 76.086 72.4253 76.4609 71.814Z" fill="#EC8446"/>
<path d="M77.6269 69.9048C78.0018 69.2935 77.0674 68.6937 76.6925 69.305C76.3176 69.9164 77.252 70.5162 77.6269 69.9048Z" fill="#EC8446"/>
<path d="M78.7909 67.9958C79.1658 67.3845 78.2315 66.7847 77.8566 67.396C77.4817 68.0074 78.416 68.6072 78.7909 67.9958Z" fill="#EC8446"/>
<path d="M79.955 66.0868C80.3299 65.4754 79.3955 64.8756 79.0207 65.487C78.6458 66.0983 79.5801 66.6982 79.955 66.0868Z" fill="#EC8446"/>
<path d="M81.121 64.1719C81.4959 63.5606 80.5616 62.9608 80.1867 63.5721C79.8118 64.1835 80.7461 64.7833 81.121 64.1719Z" fill="#EC8446"/>
<path d="M82.2812 62.2628C82.6561 61.6514 81.7217 61.0516 81.3468 61.663C80.9719 62.2744 81.9063 62.8742 82.2812 62.2628Z" fill="#EC8446"/>
<path d="M83.4452 60.3538C83.8201 59.7424 82.8858 59.1426 82.5109 59.754C82.136 60.3654 83.0703 60.9652 83.4452 60.3538Z" fill="#EC8446"/>
<path d="M84.6093 58.4447C84.9842 57.8333 84.0498 57.2335 83.675 57.8449C83.3001 58.4562 84.2344 59.0561 84.6093 58.4447Z" fill="#EC8446"/>
<path d="M85.7753 56.5356C86.1502 55.9243 85.2159 55.3245 84.841 55.9358C84.4661 56.5472 85.4004 57.147 85.7753 56.5356Z" fill="#EC8446"/>
<path d="M86.9413 54.6267C87.3162 54.0153 86.3819 53.4155 86.007 54.0268C85.6321 54.6382 86.5664 55.238 86.9413 54.6267Z" fill="#EC8446"/>
<path d="M88.1054 52.7176C88.4803 52.1062 87.5459 51.5064 87.171 52.1178C86.7962 52.7291 87.7305 53.329 88.1054 52.7176Z" fill="#EC8446"/>
<path d="M89.2655 50.8085C89.6404 50.1971 88.7061 49.5973 88.3312 50.2086C87.9563 50.82 88.8907 51.4198 89.2655 50.8085Z" fill="#EC8446"/>
<path d="M90.4296 48.8995C90.8045 48.2881 89.8702 47.6883 89.4953 48.2996C89.1204 48.911 90.0547 49.5108 90.4296 48.8995Z" fill="#EC8446"/>
<path d="M91.5937 46.9904C91.9686 46.3791 91.0342 45.7792 90.6593 46.3906C90.2844 47.0019 91.2188 47.6018 91.5937 46.9904Z" fill="#EC8446"/>
<path d="M92.7597 45.0814C93.1346 44.4701 92.2002 43.8702 91.8253 44.4816C91.4505 45.093 92.3848 45.6928 92.7597 45.0814Z" fill="#EC8446"/>
<path d="M93.9257 43.1723C94.3006 42.5609 93.3663 41.9611 92.9914 42.5725C92.6165 43.1838 93.5508 43.7837 93.9257 43.1723Z" fill="#EC8446"/>
<path d="M76.205 75.5859C76.5799 74.9746 75.6455 74.3748 75.2707 74.9861C74.8958 75.5975 75.8301 76.1973 76.205 75.5859Z" fill="#EC8446"/>
<path d="M77.3691 73.6769C77.744 73.0655 76.8096 72.4657 76.4347 73.0771C76.0598 73.6884 76.9942 74.2882 77.3691 73.6769Z" fill="#EC8446"/>
<path d="M78.5351 71.7678C78.91 71.1564 77.9756 70.5566 77.6007 71.1679C77.2258 71.7793 78.1602 72.3791 78.5351 71.7678Z" fill="#EC8446"/>
<path d="M79.7011 69.8588C80.076 69.2474 79.1416 68.6476 78.7668 69.2589C78.3919 69.8703 79.3262 70.4701 79.7011 69.8588Z" fill="#EC8446"/>
<path d="M80.8652 67.9497C81.24 67.3383 80.3057 66.7385 79.9308 67.3499C79.5559 67.9612 80.4903 68.5611 80.8652 67.9497Z" fill="#EC8446"/>
<path d="M82.0292 66.0407C82.4041 65.4293 81.4698 64.8295 81.0949 65.4408C80.72 66.0522 81.6543 66.652 82.0292 66.0407Z" fill="#EC8446"/>
<path d="M83.1894 64.1316C83.5643 63.5202 82.6299 62.9204 82.255 63.5318C81.8801 64.1431 82.8145 64.743 83.1894 64.1316Z" fill="#EC8446"/>
<path d="M84.3554 62.2225C84.7303 61.6112 83.7959 61.0113 83.421 61.6227C83.0462 62.2341 83.9805 62.8339 84.3554 62.2225Z" fill="#EC8446"/>
<path d="M85.5194 60.3135C85.8943 59.7022 84.96 59.1024 84.5851 59.7137C84.2102 60.3251 85.1446 60.9249 85.5194 60.3135Z" fill="#EC8446"/>
<path d="M86.6835 58.4045C87.0584 57.7931 86.1241 57.1933 85.7492 57.8047C85.3743 58.416 86.3086 59.0158 86.6835 58.4045Z" fill="#EC8446"/>
<path d="M87.8495 56.4896C88.2244 55.8782 87.2901 55.2784 86.9152 55.8897C86.5403 56.5011 87.4746 57.1009 87.8495 56.4896Z" fill="#EC8446"/>
<path d="M89.0156 54.5805C89.3904 53.9691 88.4561 53.3693 88.0812 53.9807C87.7063 54.592 88.6407 55.1919 89.0156 54.5805Z" fill="#EC8446"/>
<path d="M90.1737 52.6714C90.5486 52.06 89.6143 51.4602 89.2394 52.0716C88.8645 52.6829 89.7989 53.2827 90.1737 52.6714Z" fill="#EC8446"/>
<path d="M91.3398 50.7624C91.7147 50.151 90.7803 49.5512 90.4054 50.1626C90.0305 50.7739 90.9649 51.3737 91.3398 50.7624Z" fill="#EC8446"/>
<path d="M92.5038 48.8533C92.8787 48.242 91.9444 47.6421 91.5695 48.2535C91.1946 48.8649 92.1289 49.4647 92.5038 48.8533Z" fill="#EC8446"/>
<path d="M93.6679 46.9443C94.0428 46.333 93.1084 45.7332 92.7335 46.3445C92.3587 46.9559 93.293 47.5557 93.6679 46.9443Z" fill="#EC8446"/>
<path d="M94.8339 45.0352C95.2088 44.4239 94.2745 43.824 93.8996 44.4354C93.5247 45.0467 94.459 45.6466 94.8339 45.0352Z" fill="#EC8446"/>
</svg>
