<svg width="110" height="108" viewBox="0 0 110 108" fill="none" xmlns="http://www.w3.org/2000/svg">
<rect width="110" height="108" rx="12" fill="#272727"/>
<path d="M58.5995 71.9571C58.2973 71.6163 57.5514 64.9545 57.4871 61.7458C57.4613 60.5562 57.4871 58.6464 57.217 58.2413C56.9534 57.8362 54.4841 57.8362 54.2012 58.2156C53.9183 58.595 53.989 62.286 53.9633 63.1476C53.8926 65.9191 53.0502 71.9057 52.7608 72.5808C52.465 73.2689 52.7994 75.4745 52.7994 75.4745H58.7796C58.7796 75.4745 58.9982 72.4201 58.5995 71.9635V71.9571Z" fill="#414141"/>
<path d="M64.1682 57.444C64.1682 57.2511 64.0139 57.0775 63.8145 57.0775L47.6939 56.9296C47.4302 56.9296 47.3144 57.161 47.3466 57.3604C47.3273 57.4054 47.3145 57.4569 47.3145 57.5147C47.3402 58.4921 47.3595 59.4631 47.3852 60.4405C47.398 61.0707 47.2823 61.913 47.5524 62.5046C48.1118 63.7264 50.2852 63.3791 51.3398 63.4177C55.3716 63.5527 59.4034 63.5656 63.4352 63.4563C63.6474 63.4563 63.776 63.3084 63.8017 63.1026C64.0653 61.225 64.1875 59.3345 64.1682 57.4376V57.444Z" fill="#414141"/>
<path d="M52.6396 51.2066C47.9905 47.5864 35.5157 41.7027 20.7068 43.3295C18.2183 43.606 15.4661 65.2053 18.019 66.8C18.9128 67.3595 19.9223 67.6874 20.9126 68.0411C22.4237 68.5748 23.9413 69.0764 25.4717 69.5458C31.709 71.462 38.0493 72.8059 44.4281 73.6547C44.8268 73.7062 45.3155 73.4361 45.4377 73.1339C48.0869 66.4785 53.4562 51.8432 52.646 51.2066H52.6396Z" fill="#4E4E4E"/>
<path d="M45.4376 73.1339C46.9937 69.983 16.81 61.9709 17.6073 66.2856C18.3982 70.6003 43.8815 76.2847 45.4376 73.1339Z" fill="#7E7E7E"/>
<path d="M66.0538 73.1339C66.176 73.4361 66.6647 73.7062 67.0634 73.6547C73.4358 72.8059 79.7825 71.462 86.0198 69.5458C87.5502 69.0764 89.0678 68.5748 90.5789 68.0411C91.5692 67.6938 92.5787 67.3595 93.4725 66.8C96.0254 65.2053 93.2732 43.5996 90.7847 43.3295C75.9757 41.7027 63.501 47.5864 58.8519 51.2066C58.0417 51.8368 63.411 66.4785 66.0603 73.1339H66.0538Z" fill="#4E4E4E"/>
<path d="M66.0523 73.1339C64.4962 69.983 94.6799 61.9709 93.8825 66.2856C93.0916 70.6003 67.6084 76.2847 66.0523 73.1339Z" fill="#7E7E7E"/>
<path d="M37.0923 47.4063C37.0023 47.0591 36.803 46.8212 36.5394 46.6604C36.7258 45.9466 36.9123 45.2329 37.0988 44.5191C37.2724 43.8504 36.2436 43.5353 36.0635 44.2105C35.877 44.9371 35.6841 45.6573 35.4977 46.3839C34.308 46.2553 34.1795 48.8788 34.3145 50.2228C34.3788 50.8401 34.9833 50.8208 35.2405 50.9172C36.0442 51.2259 36.6165 49.4962 36.8159 48.9174C36.9766 48.448 37.221 47.9143 37.0923 47.4063V47.4063Z" fill="#E98449"/>
<path d="M25.2598 45.5416C25.1826 45.4322 25.0926 45.3486 24.9961 45.2908C25.0861 44.5577 25.1698 43.8247 25.2598 43.0852C25.3434 42.3843 24.2824 42.4936 24.1988 43.1881C24.1216 43.8504 24.038 44.5191 23.9608 45.1815C23.8515 45.2008 23.7422 45.2265 23.6329 45.2586C23.2471 45.3615 22.8934 48.6795 23.3243 49.1554C23.6265 49.4897 24.3209 49.5605 24.7518 49.3225C25.3369 49.001 25.6327 46.0624 25.2662 45.5351L25.2598 45.5416Z" fill="#E98449"/>
<path d="M48.0229 50.9558C47.9843 50.8272 47.9264 50.7243 47.8493 50.6343C48.1579 49.9656 48.3187 49.6119 48.6273 48.9432C48.9231 48.3066 48.0229 47.76 47.7335 48.3902C47.4506 49.001 47.1741 49.6055 46.8912 50.2164C46.7819 50.2035 46.6661 50.1906 46.5568 50.1906C46.1581 50.1713 44.8013 53.2193 45.065 53.8044C45.245 54.216 45.8881 54.4925 46.3703 54.4025C47.0262 54.2739 48.2094 51.5667 48.0229 50.9623V50.9558Z" fill="#E98449"/>
<path d="M74.6778 48.9239C74.8771 49.5026 75.4494 51.2259 76.2532 50.9237C76.504 50.8273 77.1149 50.8465 77.1792 50.2292C77.3142 48.8853 77.192 46.2618 75.996 46.3904C75.8095 45.6637 75.6167 44.9436 75.4302 44.2169C75.2566 43.5418 74.2213 43.8568 74.3949 44.5256C74.5814 45.2393 74.7678 45.9531 74.9543 46.6669C74.6971 46.8276 74.4913 47.0655 74.4013 47.4128C74.2727 47.9208 74.5171 48.4545 74.6778 48.9239V48.9239Z" fill="#E98449"/>
<path d="M86.2262 45.5416C86.3033 45.4322 86.3933 45.3486 86.4898 45.2908C86.3998 44.5577 86.3162 43.8247 86.2262 43.0852C86.1426 42.3843 87.2035 42.4936 87.2871 43.1881C87.3643 43.8504 87.4479 44.5191 87.5251 45.1815C87.6344 45.2008 87.7437 45.2265 87.853 45.2586C88.2388 45.3615 88.5925 48.6795 88.1617 49.1554C87.8595 49.4897 87.165 49.5605 86.7341 49.3225C86.149 49.001 85.8532 46.0624 86.2197 45.5351L86.2262 45.5416Z" fill="#E98449"/>
<path d="M63.4622 50.9558C63.5007 50.8272 63.5586 50.7243 63.6358 50.6343C63.3271 49.9656 63.1664 49.6119 62.8577 48.9432C62.5619 48.3066 63.4622 47.76 63.7515 48.3902C64.0345 49.001 64.311 49.6055 64.5939 50.2164C64.7032 50.2035 64.819 50.1906 64.9283 50.1906C65.327 50.1713 66.6837 53.2193 66.4201 53.8044C66.2401 54.216 65.597 54.4925 65.1147 54.4025C64.4588 54.2739 63.2757 51.5667 63.4622 50.9623V50.9558Z" fill="#E98449"/>
<path d="M27.8654 29.601C27.859 29.4145 27.6982 29.2666 27.5117 29.2795C27.3253 29.2859 27.1774 29.4467 27.1902 29.6331C27.3446 33.292 27.9683 36.9251 29.0357 40.4296C29.0807 40.5775 29.2158 40.6675 29.3572 40.6675C29.3894 40.6675 29.4216 40.6675 29.4537 40.6546C29.6338 40.6032 29.7366 40.4103 29.6787 40.2302C28.6306 36.7836 28.0197 33.2084 27.8654 29.6074V29.601Z" fill="#8F8F8F"/>
<path d="M34.5653 26.0064C34.3788 25.9871 34.2117 26.1222 34.1924 26.3087L32.8163 40.2173C32.797 40.4038 32.932 40.571 33.1185 40.5903C33.1314 40.5903 33.1442 40.5903 33.1507 40.5903C33.3243 40.5903 33.4722 40.4617 33.485 40.2817L34.8611 26.373C34.8804 26.1865 34.7453 26.0193 34.5589 26L34.5653 26.0064Z" fill="#8F8F8F"/>
<path d="M41.7345 29.4402C41.5609 29.3695 41.3616 29.4531 41.2908 29.6331L36.7575 41.0404C36.6868 41.2141 36.7703 41.4134 36.9504 41.4841C36.989 41.5034 37.034 41.5098 37.0726 41.5098C37.2076 41.5098 37.3362 41.4263 37.3876 41.2977L41.921 29.8903C41.9917 29.7167 41.9081 29.5174 41.7281 29.4466L41.7345 29.4402Z" fill="#8F8F8F"/>
<path d="M48.3135 32.3211C48.1592 32.2182 47.947 32.2632 47.8441 32.4175L41.491 42.0951C41.3881 42.2494 41.4331 42.4616 41.5874 42.5645C41.6453 42.6031 41.7096 42.6224 41.7739 42.6224C41.8832 42.6224 41.9925 42.5709 42.0568 42.468L48.41 32.7905C48.5128 32.6361 48.4678 32.4239 48.3135 32.3211Z" fill="#8F8F8F"/>
<path d="M65.5327 33.6842C65.462 33.5106 65.2562 33.427 65.089 33.5042C64.9154 33.5749 64.8382 33.7743 64.9089 33.9479C66.3429 37.3173 68.2013 40.5003 70.4326 43.4004C70.529 43.5226 70.6833 43.5611 70.8184 43.5097C70.8505 43.4968 70.8762 43.484 70.9084 43.4583C71.0563 43.3425 71.082 43.1303 70.9727 42.9824C68.7735 40.1274 66.9474 36.9958 65.5327 33.6778V33.6842Z" fill="#8F8F8F"/>
<path d="M70.528 27.9612C70.348 28.0127 70.2386 28.1927 70.2901 28.3792L73.8975 41.8828C73.9489 42.0628 74.129 42.1721 74.3154 42.1207C74.3283 42.1207 74.3347 42.1143 74.3476 42.1078C74.5083 42.05 74.5984 41.8699 74.5534 41.7027L70.946 28.1991C70.8945 28.0191 70.7145 27.9098 70.528 27.9612Z" fill="#8F8F8F"/>
<path d="M78.4576 28.6493C78.2711 28.6493 78.1168 28.7972 78.1104 28.9837L77.8789 41.2526C77.8789 41.4391 78.0268 41.5935 78.2133 41.5999C78.2583 41.5999 78.2969 41.5934 78.3419 41.5806C78.4705 41.5356 78.5605 41.4134 78.5605 41.2719L78.792 29.003C78.792 28.8165 78.6441 28.6622 78.4576 28.6557V28.6493Z" fill="#8F8F8F"/>
<path d="M85.6266 29.0351C85.4466 28.9965 85.2601 29.1058 85.2215 29.2923L82.6815 40.5838C82.643 40.7639 82.7523 40.9504 82.9388 40.9889C83.0031 41.0018 83.0738 40.9954 83.1317 40.9761C83.2346 40.9375 83.3182 40.8475 83.3439 40.7317L85.8838 29.4402C85.9224 29.2601 85.8131 29.0736 85.6266 29.0351Z" fill="#8F8F8F"/>
</svg>
