<svg width="110" height="108" viewBox="0 0 110 108" fill="none" xmlns="http://www.w3.org/2000/svg">
<rect width="110" height="108" rx="12" fill="#272727"/>
<path d="M55.5088 76.4813C58.8701 69.3167 62.2314 62.1521 65.5858 54.9838C65.8982 54.3151 65.7596 53.4591 65.054 53.0825L50.1537 45.1486C49.379 44.7352 48.6534 45.1123 48.2976 45.6956C48.1297 45.8104 47.9853 45.9644 47.8649 46.1401C43.9117 51.9491 40.0655 57.824 36.3296 63.7755C34.4651 66.7531 32.6282 69.7454 30.819 72.7526C29.9714 74.1577 28.955 75.5793 28.5128 77.1741C28.1176 78.5807 28.3354 80.0211 28.9568 81.3215C30.206 83.9433 32.9433 85.8751 35.3643 87.3004C38.003 88.8508 41.18 90.2085 44.2881 90.3297C47.4944 90.4499 49.7226 88.4396 51.1378 85.7377C52.7192 82.7245 54.0589 79.5646 55.5051 76.4882L55.5088 76.4813Z" fill="#3A3A3A"/>
<path d="M88.4487 30.178C80.09 25.1574 71.5375 20.4334 62.7976 16.027C60.3124 14.7719 57.8125 13.5444 55.2978 12.3446C54.6397 12.029 53.7315 12.282 53.3804 12.9566C51.1498 17.1697 45.9568 26.8673 44.9047 32.8024C43.9435 38.2173 44.335 43.9452 47.0854 48.6835C49.8557 53.468 55.156 56.892 60.9931 57.012C66.9917 57.1293 72.5669 53.3768 76.7147 49.3515C81.8673 44.3426 85.4917 38.1005 88.9998 32.0097C89.3971 31.3152 89.0805 30.5596 88.4556 30.1817L88.4487 30.178Z" fill="#3A3A3A"/>
<path d="M53.321 12.4991C52.642 12.8388 51.2701 15.626 51.036 16.7809C50.1447 21.1488 85.3765 39.3462 87.0709 36.3044C87.4391 35.6478 89.023 33.729 89.3559 32.0226C89.9281 29.1019 55.0596 11.6227 53.321 12.4991Z" fill="#EC8446"/>
<path d="M71.7577 16.7386C67.397 14.5181 55.8432 8.82334 53.294 12.4843C50.7449 16.1452 87.6346 35.0496 89.329 32.0079C91.0196 28.973 76.5164 19.1625 71.7577 16.7386V16.7386Z" fill="#EC8446"/>
<path d="M52.9866 15.4296C51.9836 14.8943 51.1184 16.4323 52.1214 16.9675C53.1244 17.5028 53.9896 15.9649 52.9866 15.4296Z" fill="black"/>
<path d="M59.0745 19.3621C58.0714 18.8268 57.2063 20.3648 58.2093 20.9C59.2123 21.4353 60.0775 19.8973 59.0745 19.3621Z" fill="black"/>
<path d="M66.5686 23.7178C65.5656 23.1825 64.7004 24.7205 65.7034 25.2557C66.7064 25.791 67.5716 24.2531 66.5686 23.7178Z" fill="black"/>
<path d="M73.9885 27.4823C72.9855 26.9471 72.1204 28.485 73.1234 29.0203C74.1264 29.5555 74.9915 28.0176 73.9885 27.4823Z" fill="black"/>
<path d="M80.9143 30.8933C79.9113 30.3581 79.0461 31.896 80.0491 32.4313C81.0522 32.9665 81.9173 31.4286 80.9143 30.8933Z" fill="black"/>
<path d="M87.0256 33.8793C86.0226 33.344 85.1575 34.882 86.1605 35.4172C87.1635 35.9525 88.0286 34.4146 87.0256 33.8793Z" fill="black"/>
<path d="M81.844 37.6458C80.841 37.1105 79.9758 38.6484 80.9788 39.1837C81.9818 39.719 82.847 38.181 81.844 37.6458Z" fill="black"/>
<path d="M74.3928 34.319C73.3898 33.7837 72.5246 35.3217 73.5277 35.8569C74.5307 36.3922 75.3958 34.8543 74.3928 34.319Z" fill="black"/>
<path d="M67.4084 31.1062C66.4054 30.571 65.5403 32.1089 66.5433 32.6442C67.5463 33.1794 68.4114 31.6415 67.4084 31.1062Z" fill="black"/>
<path d="M59.303 26.5064C58.3 25.9711 57.4348 27.5091 58.4378 28.0443C59.4408 28.5796 60.306 27.0416 59.303 26.5064Z" fill="black"/>
<path d="M52.7483 22.4036C51.7453 21.8683 50.8801 23.4063 51.8831 23.9415C52.8861 24.4768 53.7513 22.9389 52.7483 22.4036Z" fill="black"/>
<path d="M86.3272 34.2537C84.7713 35.3874 83.2047 36.5244 81.6487 37.6581C81.1534 35.7052 80.8762 33.7265 80.838 31.7332C80.833 31.3928 80.4281 31.1856 80.1329 31.3391C78.1693 32.3708 76.2019 33.4094 74.2382 34.4411C74.0266 32.373 73.9552 30.3086 74.024 28.2479C74.0365 27.9079 73.5966 27.6998 73.3189 27.8538C71.244 28.9773 69.1761 30.1044 67.1013 31.2279C66.5318 29.031 66.3492 26.7917 66.5347 24.5622C66.5611 24.2297 66.0972 23.9999 65.8296 24.1682C63.8101 25.4545 61.5901 26.3671 59.2188 26.8969C58.9731 24.6595 58.9202 22.4272 59.0739 20.2074C59.0975 19.8468 58.6423 19.6838 58.3688 19.8134C56.4752 20.7136 54.578 21.6208 52.6845 22.5211C52.775 20.4364 52.8654 18.3518 52.9559 16.2671C52.9782 15.6924 52.0558 15.689 52.0335 16.2636C51.9328 18.6006 51.8358 20.9306 51.7351 23.2676C51.7221 23.625 52.163 23.7981 52.4402 23.6616C54.3337 22.7614 56.2273 21.8611 58.1139 20.9571C58.0109 23.1151 58.0971 25.2851 58.3622 27.4529C58.4 27.7486 58.654 27.9553 58.9575 27.8862C61.3025 27.4223 63.5345 26.5872 65.5614 25.4203C65.4709 27.6383 65.7452 29.8554 66.3715 32.0293C66.4516 32.312 66.8058 32.4477 67.0549 32.314C69.0587 31.2238 71.0694 30.1372 73.0732 29.0469C73.033 31.0873 73.14 33.1352 73.3839 35.1761C73.4207 35.5068 73.7758 35.7407 74.089 35.5701C76.0383 34.5486 77.9845 33.5164 79.9338 32.4948C80.0376 34.5321 80.3696 36.5578 80.9304 38.5545C81.0009 38.8055 81.3813 39.0085 81.6138 38.8393C83.3451 37.5769 85.0726 36.3215 86.8039 35.0591C87.2652 34.7276 86.7811 33.936 86.3161 34.2745L86.3272 34.2537Z" fill="#EF9661"/>
</svg>
