<svg width="110" height="108" viewBox="0 0 110 108" fill="none" xmlns="http://www.w3.org/2000/svg">
<rect width="110" height="108" rx="12" fill="#272727"/>
<path d="M86.1719 56.4545C85.4674 51.766 19.3415 50.6771 18.1245 54.3408C17.548 55.7627 17.9964 66.9716 18.2142 68.4576C18.8419 72.6465 26.2205 81.3189 52.1739 81.3189C78.1272 81.3189 84.5835 71.1989 85.2752 69.1749C86.0054 67.0228 86.5818 59.2727 86.1591 56.4545H86.1719Z" fill="#474747"/>
<path d="M56.4111 71.5063C53.311 70.3406 48.1614 70.3534 45.9324 72.3005C43.4985 74.4142 44.6514 77.5014 48.4944 78.7568C52.0685 79.9225 56.7698 79.0258 58.512 77.4758C60.7025 75.5159 59.7802 72.7617 56.4239 71.5063H56.4111Z" fill="#726F6F"/>
<path d="M56.5265 69.8922C53.3496 68.7009 48.059 68.7137 45.766 70.6993C43.2681 72.877 44.4337 75.913 48.597 77.3093C52.2863 78.5391 56.8852 77.6167 58.6786 76.0155C60.9204 74.0043 59.9852 71.186 56.5265 69.8922V69.8922Z" fill="#C1BFBF"/>
<path d="M54.759 70.52C52.8759 69.8154 49.7375 69.8155 48.3796 71.0068C46.9064 72.3006 47.5982 74.094 50.0577 74.9267C52.2482 75.6569 54.9768 75.106 56.0273 74.1581C57.3595 72.9667 56.7958 71.2886 54.759 70.5328V70.52Z" fill="#AAA9A9"/>
<path d="M26.9501 55.5706C23.8501 54.4049 18.7004 54.4177 16.4715 56.3648C14.0375 58.4785 15.1905 61.5658 19.0335 62.8212C22.6075 63.9869 27.3089 63.0902 29.051 61.5401C31.2416 59.5802 30.3192 56.826 26.963 55.5706H26.9501Z" fill="#726F6F"/>
<path d="M27.0656 53.9565C23.8886 52.7651 18.5981 52.778 16.3051 54.7635C13.8071 56.9413 14.9728 59.9773 19.1361 61.3736C22.8254 62.6033 27.4242 61.681 29.2176 60.0797C31.4594 58.0685 30.5243 55.2503 27.0656 53.9565V53.9565Z" fill="#C1BFBF"/>
<path d="M25.2981 54.5843C23.415 53.8797 20.2765 53.8797 18.9187 55.0711C17.4455 56.3649 18.1372 58.1583 20.5968 58.991C22.7873 59.7211 25.5159 59.1703 26.5663 58.2224C27.8986 57.031 27.3349 55.3529 25.2981 54.5971V54.5843Z" fill="#AAA9A9"/>
<path d="M30.6005 65.8316C27.5005 64.6659 22.3508 64.6787 20.1219 66.6258C17.6879 68.7395 18.8408 71.8267 22.6839 73.0821C26.2579 74.2479 30.9592 73.3512 32.7014 71.8011C34.892 69.8412 33.9696 67.087 30.6134 65.8316H30.6005Z" fill="#726F6F"/>
<path d="M30.7043 64.2047C27.5274 63.0134 22.2368 63.0262 19.9437 65.0118C17.4458 67.1895 18.6115 70.2255 22.7748 71.6218C26.4641 72.8516 31.063 71.9292 32.8564 70.328C35.0982 68.3168 34.163 65.4985 30.7043 64.2047V64.2047Z" fill="#C1BFBF"/>
<path d="M28.9367 64.8451C27.0537 64.1406 23.9152 64.1406 22.5573 65.3319C21.0842 66.6258 21.7759 68.4192 24.2354 69.2518C26.426 69.982 29.1545 69.4312 30.2049 68.4832C31.5372 67.2919 30.9736 65.6138 28.9367 64.858V64.8451Z" fill="#AAA9A9"/>
<path d="M75.3095 61.5399C77.0517 63.1027 81.7402 63.9994 85.327 62.8209C89.1701 61.5655 90.323 58.4782 87.889 56.3646C85.6601 54.4174 80.5104 54.4174 77.4104 55.5703C74.0541 56.8257 73.1318 59.5799 75.3223 61.5399H75.3095Z" fill="#726F6F"/>
<path d="M75.1432 60.0796C76.9238 61.6808 81.5355 62.6032 85.2248 61.3734C89.3753 59.9771 90.5538 56.9411 88.0559 54.7634C85.7628 52.765 80.4722 52.765 77.2953 53.9563C73.8494 55.2502 72.9015 58.0684 75.1432 60.0796V60.0796Z" fill="#C1BFBF"/>
<path d="M77.7952 58.2222C78.8457 59.1701 81.587 59.721 83.7647 58.9908C86.2243 58.1709 86.916 56.3647 85.4428 55.0709C84.085 53.8923 80.9465 53.8795 79.0634 54.5841C77.0138 55.3527 76.463 57.018 77.7952 58.2094V58.2222Z" fill="#AAA9A9"/>
<path d="M71.6708 71.8008C73.413 73.3636 78.1015 74.2603 81.6883 73.0818C85.5314 71.8264 86.6843 68.7392 84.2504 66.6255C82.0214 64.6784 76.8717 64.6784 73.7717 65.8313C70.4154 67.0867 69.4931 69.8408 71.6836 71.8008H71.6708Z" fill="#726F6F"/>
<path d="M71.5046 70.3276C73.2852 71.9289 77.8968 72.8512 81.5861 71.6214C85.7366 70.2251 86.9152 67.1891 84.4172 65.0114C82.1242 63.013 76.8336 63.013 73.6566 64.2044C70.2107 65.4982 69.2628 68.3164 71.5046 70.3276V70.3276Z" fill="#C1BFBF"/>
<path d="M74.1429 68.4702C75.1933 69.4182 77.9347 69.969 80.1124 69.2388C82.572 68.419 83.2637 66.6127 81.7906 65.3189C80.4327 64.1404 77.2942 64.1276 75.4111 64.8321C73.3615 65.6007 72.8106 67.2661 74.1429 68.4574V68.4702Z" fill="#AAA9A9"/>
<path d="M17.7016 55.8651C17.7785 58.1453 17.2917 59.9643 17.8426 61.335C19.6488 65.793 26.2204 72.7232 52.1737 72.7232C78.1271 72.7232 84.6602 64.1661 85.6978 62.6032C86.8123 60.9379 86.1974 59.042 86.3895 57.1205C86.6329 54.6866 17.5863 52.7522 17.6888 55.8523L17.7016 55.8651Z" fill="#655231"/>
<path d="M86.1821 54.0589C85.9003 52.6626 77.4968 47.3208 71.8347 46.0654C65.135 44.5794 57.6668 44.2976 50.6596 44.2463C43.3963 44.1951 35.4668 44.2976 28.703 46.296C24.0017 47.6923 19.2107 50.0621 18.6343 51.1894C14.9194 58.4015 22.6823 64.5376 27.2811 66.5104C32.6998 68.829 39.233 69.5336 45.5099 69.841C51.9406 70.1612 58.4738 70.0972 64.8148 69.2261C70.7075 68.4191 76.8947 66.8819 81.4295 64.1277C83.4791 62.8851 85.1573 61.2966 85.8362 59.4776C86.5664 57.5433 86.4639 55.4296 86.1821 54.0333V54.0589Z" fill="#655231"/>
<path d="M85.1718 50.9205C82.9044 46.6931 77.4856 43.9774 71.8364 42.6067C65.1367 40.9798 57.6684 40.6852 50.6613 40.6211C43.3979 40.5699 35.4684 40.6724 28.7047 42.8629C24.0033 44.3873 19.9681 47.2696 18.764 50.8692C18.1875 52.2655 17.9954 53.7771 18.226 55.2375C18.8537 59.3496 22.6839 62.8083 27.2828 64.9604C32.7014 67.4968 39.2346 68.2654 45.5116 68.6113C51.9422 68.9572 58.4754 68.8931 64.8164 67.9452C70.7091 67.0613 76.8964 65.3831 81.4312 62.3727C83.4808 61.0149 85.1589 59.2855 85.8378 57.2871C86.568 55.1734 86.2478 52.9317 85.1718 50.9205V50.9205Z" fill="#EC8446"/>
<path d="M82.0962 48.9477C80.0337 45.5274 75.1275 43.3369 70.0034 42.2224C63.9186 40.903 57.1548 40.6596 50.801 40.6211C44.2166 40.5699 37.0173 40.6596 30.8813 42.4274C26.6283 43.6571 22.9518 45.9886 21.8629 48.8965C21.3377 50.0238 21.1711 51.2407 21.3761 52.4321C21.9397 55.7627 25.4241 58.5425 29.5874 60.2847C34.5065 62.3343 40.4248 62.962 46.1253 63.231C51.9539 63.5129 57.885 63.4616 63.6368 62.693C68.9786 61.9884 74.5894 60.6306 78.7015 58.1967C80.5589 57.095 82.0833 55.6987 82.6982 54.0846C83.3643 52.3808 83.0697 50.5618 82.0962 48.9349V48.9477Z" fill="#EC8446"/>
<path d="M38.0046 23.0583C37.9918 22.6869 37.6715 22.405 37.3128 22.4178C36.9413 22.4306 36.6595 22.7381 36.6723 23.1096C36.9797 30.2705 38.1967 37.3801 40.2848 44.2335C40.3744 44.5153 40.6306 44.7075 40.9253 44.7075C40.9893 44.7075 41.0534 44.7075 41.1175 44.6819C41.4633 44.5794 41.6682 44.2079 41.553 43.8492C39.5033 37.0983 38.2992 30.1039 38.0046 23.0583V23.0583Z" fill="#5F5F5F"/>
<path d="M51.1095 16.0128C50.738 15.9744 50.4177 16.2434 50.3793 16.6021L47.6892 43.8236C47.6508 44.1823 47.9197 44.5154 48.2784 44.5538C48.304 44.5538 48.3169 44.5538 48.3425 44.5538C48.6756 44.5538 48.9702 44.2976 49.0086 43.9517L51.6988 16.7302C51.7372 16.3715 51.4682 16.0384 51.1095 16V16.0128Z" fill="#5F5F5F"/>
<path d="M65.1491 22.7383C64.8033 22.5974 64.4189 22.7639 64.2908 23.1098L55.4134 45.425C55.2725 45.7709 55.439 46.1552 55.7849 46.2833C55.8618 46.3089 55.9515 46.3345 56.0283 46.3345C56.2973 46.3345 56.5407 46.1808 56.6432 45.9118L65.5206 23.5966C65.6615 23.2507 65.495 22.8664 65.1491 22.7383V22.7383Z" fill="#5F5F5F"/>
<path d="M78.0211 28.3746C77.7136 28.1697 77.3037 28.2593 77.0987 28.5668L64.6729 47.5002C64.468 47.8076 64.5576 48.2175 64.865 48.4225C64.9803 48.4994 65.1085 48.5378 65.2238 48.5378C65.4415 48.5378 65.6465 48.4353 65.7746 48.2432L78.2004 29.3098C78.4054 29.0023 78.3157 28.5924 78.0082 28.3874L78.0211 28.3746Z" fill="#5F5F5F"/>
</svg>
