<svg width="110" height="108" viewBox="0 0 110 108" fill="none" xmlns="http://www.w3.org/2000/svg">
<path d="M36.1597 76.8618C36.0665 75.0709 35.9733 73.28 35.8802 71.4892C35.6731 67.4313 35.4558 63.3837 35.2487 59.3258C35.2073 58.4977 33.7995 58.27 33.0955 58.684C32.402 58.6116 31.6153 58.8704 31.5946 59.4811C31.3668 66.6549 31.1391 73.839 30.901 81.0128C30.8596 82.1929 30.5283 83.9631 32.6194 84.4807C34.8761 85.0397 36.3357 83.4558 36.4081 82.1722C36.5116 80.4124 36.2425 78.6216 36.1493 76.8618H36.1597Z" fill="#464646"/>
<path d="M43.3434 40.889C42.8879 38.1458 41.5215 35.5682 39.0784 34.119C36.8528 32.7939 34.0578 32.4523 31.5527 33.1045C26.0249 34.5434 22.8779 40.2783 22.7537 45.6819C22.6295 51.0959 25.6522 58.456 29.7101 60.6195C33.768 62.783 37.7224 61.2613 39.4408 58.8804C41.2316 56.3856 42.3289 53.1766 42.9603 50.1953C43.6022 47.1622 43.8506 43.9532 43.3434 40.8787V40.889Z" fill="#EC8446"/>
<path d="M33.696 50.4338C35.342 50.4338 35.4041 47.8769 33.7581 47.8769C32.1122 47.8769 32.0501 50.4338 33.696 50.4338Z" fill="#D37842"/>
<path d="M39.2755 47.8667C40.6212 48.0116 41.584 47.256 42.2982 46.2001C42.733 45.5479 43.1264 44.9061 43.6233 44.3989C43.6233 43.8916 43.6129 43.3844 43.5715 42.8772C43.1367 43.1463 42.733 43.4879 42.4018 43.8813C41.6461 44.7922 41.1595 46.5003 39.8242 46.6763C38.2714 46.8833 36.9981 45.2788 35.8284 44.492C34.7829 43.7881 33.4889 43.2705 32.2467 43.7881C31.108 44.2643 30.6939 45.5893 29.6276 46.0966C28.1266 46.7901 26.7499 45.1856 25.8596 44.2022C25.1143 43.374 24.3069 42.5562 23.251 42.2043C23.1475 42.608 23.0646 43.0014 22.9922 43.4051C23.6547 43.7156 24.2861 44.2539 24.6795 44.668C25.6629 45.7239 26.5739 46.8936 28.0231 47.3181C29.3171 47.6907 30.4144 47.2249 31.2839 46.2622C31.7394 45.7549 32.1535 45.0614 32.8367 44.844C33.7787 44.5438 34.7621 45.1856 35.4868 45.7135C36.6565 46.5727 37.7538 47.7218 39.2755 47.8874V47.8667Z" fill="#D37842"/>
<path d="M26.5542 36.1072C25.7881 36.9146 25.1359 37.8256 24.5977 38.809C30.5085 40.0926 36.7299 39.8442 42.5062 38.043C42.0611 37.0492 41.4607 36.1383 40.6947 35.3619C36.1088 36.6558 31.2538 36.9146 26.5645 36.1072H26.5542Z" fill="#D37842"/>
<path d="M39.3988 41.8214C37.7528 41.8214 37.6907 44.3783 39.3366 44.3783C40.9826 44.3783 41.0447 41.8214 39.3988 41.8214Z" fill="#D37842"/>
<path d="M23.4465 46.9037C23.1981 46.9037 22.9807 46.9659 22.8047 47.0694C22.8564 47.8458 22.96 48.6325 23.1153 49.4399C23.1981 49.4606 23.2912 49.471 23.3844 49.471C25.0303 49.471 25.0925 46.9141 23.4465 46.9141V46.9037Z" fill="#D37842"/>
<path d="M41.5519 54.9372C41.997 53.8296 42.3594 52.6909 42.6492 51.5522C36.5003 53.1567 29.9786 53.312 23.7676 51.987C24.1299 53.136 24.5957 54.2644 25.1237 55.3099C30.5687 56.2105 36.1483 56.0863 41.5519 54.9372Z" fill="#D37842"/>
<path d="M28.5296 41.6867C26.8837 41.6867 26.8216 44.2436 28.4675 44.2436C30.1134 44.2436 30.1755 41.6867 28.5296 41.6867Z" fill="#D37842"/>
<path d="M57.5568 58.1552C58.7886 56.8509 60.0101 55.5362 61.242 54.2319C64.0163 51.2713 66.8009 48.3107 69.5752 45.3501C70.1445 44.7497 69.3371 43.5696 68.54 43.3522C68.1052 42.8036 67.3806 42.4205 66.9251 42.8243C61.5836 47.6275 56.2525 52.4411 50.9109 57.2443C50.031 58.031 48.53 59.0144 49.6066 60.8881C50.766 62.9067 52.9192 62.8653 53.9026 62.0268C55.238 60.8778 56.3456 59.4492 57.5568 58.1656V58.1552Z" fill="#464646"/>
<path d="M88.4878 38.4246C90.1544 36.1989 91.0654 33.4246 90.4133 30.6607C89.8232 28.1349 88.1359 25.8782 85.9413 24.5325C81.076 21.5408 74.7613 23.2489 70.7759 26.903C66.7905 30.5572 63.5711 37.8449 64.8133 42.2651C66.0555 46.6853 69.896 48.4865 72.8049 48.0724C75.8483 47.6376 78.9227 46.2091 81.5003 44.6046C84.14 42.969 86.6142 40.9297 88.4775 38.4246H88.4878Z" fill="#EC8446"/>
<path d="M74.9153 38.0717C76.054 39.2621 77.938 37.5334 76.7993 36.3429C75.6606 35.1525 73.7766 36.8812 74.9153 38.0717Z" fill="#D37842"/>
<path d="M80.6285 40.3181C81.4566 41.3843 82.6678 41.5603 83.9204 41.3429C84.6967 41.2083 85.4317 41.0427 86.1356 41.0531C86.5083 40.7011 86.8602 40.3388 87.2018 39.9661C86.705 39.8419 86.1874 39.7798 85.6698 39.8212C84.4897 39.904 82.9266 40.7322 81.8707 39.904C80.6492 38.931 80.9183 36.902 80.6802 35.5149C80.4629 34.2727 79.9349 32.9787 78.703 32.4507C77.5747 31.9642 76.3325 32.5853 75.2249 32.1505C73.6825 31.5501 73.8791 29.4487 73.9826 28.1133C74.0655 26.9954 74.0965 25.8463 73.6203 24.8525C73.258 25.0492 72.9061 25.2666 72.5645 25.4944C72.8025 26.1879 72.8543 27.0161 72.8232 27.5854C72.7404 29.0243 72.5334 30.4943 73.2373 31.8296C73.8688 33.0201 74.9557 33.4859 76.26 33.4445C76.9433 33.4238 77.73 33.2478 78.3615 33.5791C79.231 34.0449 79.4484 35.2043 79.5623 36.0946C79.7589 37.5335 79.6865 39.1173 80.6181 40.3284L80.6285 40.3181Z" fill="#D37842"/>
<path d="M80.3003 23.0002C79.1926 23.0002 78.0746 23.1658 76.998 23.466C80.1657 28.6212 84.6584 32.9379 89.9585 35.8467C90.3622 34.8323 90.6106 33.766 90.6313 32.6791C86.5217 30.2671 82.971 26.9442 80.3106 23.0002H80.3003Z" fill="#D37842"/>
<path d="M85.0708 36.219C83.9321 35.0286 82.0481 36.7573 83.1868 37.9478C84.3255 39.1382 86.2095 37.4095 85.0708 36.219Z" fill="#D37842"/>
<path d="M70.3504 28.2375C70.1745 28.0511 69.9881 27.9476 69.7914 27.8855C69.2739 28.4548 68.7666 29.0863 68.3008 29.7488C68.3525 29.8213 68.4043 29.8937 68.4664 29.9662C69.6051 31.1567 71.4891 29.4279 70.3504 28.2375Z" fill="#D37842"/>
<path d="M77.1106 46.8607C78.2182 46.4156 79.2948 45.8773 80.3093 45.3079C74.8953 41.985 70.2681 37.3888 66.9244 31.9955C66.3447 33.0618 65.8582 34.1694 65.4648 35.2771C68.5807 39.8215 72.5351 43.7655 77.1106 46.871V46.8607Z" fill="#D37842"/>
<path d="M77.6489 28.2894C76.5102 27.099 74.6262 28.8277 75.7649 30.0182C76.9036 31.2087 78.7876 29.4799 77.6489 28.2894V28.2894Z" fill="#D37842"/>
</svg>
