<svg width="110" height="108" viewBox="0 0 110 108" fill="none" xmlns="http://www.w3.org/2000/svg">
<rect width="110" height="108" rx="12" fill="#272727"/>
<path d="M72.133 49.2053C71.3805 49.0027 70.6352 48.9882 69.8754 49.1547C69.709 49.1908 69.6655 49.3645 69.7162 49.4948C69.6872 49.5671 69.6873 49.6612 69.7234 49.7263C69.8899 50.023 70.3312 50.0664 70.6786 50.0881C70.7075 50.1749 70.7147 50.2762 70.7003 50.3848C70.7437 50.6163 70.7003 50.8913 70.7003 51.1229C70.7003 51.6945 70.7075 52.2662 70.7148 52.845C70.7148 53.1779 71.1996 53.1924 71.1996 52.8595C71.1996 52.201 71.1851 51.5498 71.1779 50.8913C71.1779 50.6598 71.2068 50.3631 71.1851 50.0953C71.5686 50.0592 71.9087 49.9144 72.2198 49.6395C72.3573 49.5165 72.2922 49.2487 72.1258 49.2053H72.133Z" fill="#5F5F5F"/>
<path d="M67.8566 49.2994C67.1981 49.0244 66.5397 48.9738 65.8522 49.133C65.7365 49.1619 65.6858 49.2487 65.6786 49.3428C65.5917 49.3934 65.5338 49.4875 65.5773 49.6105C65.7437 50.1243 66.1996 50.1388 66.641 50.1532C66.641 50.9781 66.6554 51.803 66.6554 52.6279C66.6554 52.9608 67.1402 52.9753 67.1402 52.6424C67.1402 51.8175 67.1258 50.9998 67.1258 50.1749C67.5237 50.1749 67.9073 50.1026 68.0303 49.6178C68.0664 49.473 67.9941 49.35 67.8711 49.2921L67.8566 49.2994ZM67.0968 49.6539C67.0968 49.6539 67.0824 49.6178 67.0751 49.5961C67.1258 49.6033 67.1837 49.6178 67.2343 49.6322C67.1909 49.6395 67.1475 49.6467 67.0968 49.6539V49.6539Z" fill="#5F5F5F"/>
<path d="M64.5072 49.5092C63.6678 49.0099 62.7271 48.9086 61.8154 49.2342C61.743 49.2632 61.6996 49.3066 61.6707 49.3645C61.5766 49.4007 61.4898 49.4441 61.4174 49.4803C61.251 49.5816 61.2582 49.9144 61.468 49.9506C61.8443 50.0302 62.2206 50.0808 62.5969 50.0953C62.6258 50.3196 62.5607 50.6959 62.5607 50.8623C62.5607 51.4919 62.5534 52.1286 62.5462 52.7582C62.5462 53.091 63.0238 53.1055 63.031 52.7726C63.031 52.1793 63.0383 51.5932 63.0455 50.9998C63.0455 50.7538 63.0961 50.4137 63.0889 50.1025C63.5375 50.1025 63.9934 50.0519 64.4493 49.9651C64.6519 49.9289 64.6953 49.596 64.5144 49.4947L64.5072 49.5092Z" fill="#5F5F5F"/>
<path d="M58.8121 49.0534C58.5081 49.0389 57.5892 49.0099 57.4517 49.4513C57.3793 49.4803 57.307 49.5165 57.2419 49.5454C57.0103 49.6612 57.1333 50.0085 57.3504 50.0302C57.4589 50.0447 57.5675 50.0519 57.6832 50.0592C57.9003 50.2328 58.2332 50.2762 58.5805 50.269L58.5299 53.0259C58.5299 53.3588 59.0074 53.3733 59.0147 53.0404C59.0291 52.0997 59.0436 51.1663 59.0653 50.2256C59.3186 50.1894 59.5501 50.1388 59.7166 50.1026C59.8758 50.0809 60.0277 50.0302 60.1218 49.9072C60.6862 49.1547 59.1015 49.0678 58.8121 49.0534V49.0534ZM59.4416 49.625H59.4344C59.391 49.625 59.2318 49.6178 59.0726 49.6033V49.5888C59.0726 49.5888 59.1232 49.5888 59.1304 49.5888C59.3331 49.6105 59.4199 49.6178 59.4416 49.6178V49.625Z" fill="#5F5F5F"/>
<path d="M82.2277 59.3212C81.4173 58.2647 80.151 58.0042 78.9426 57.8957C77.5243 57.7654 76.0988 57.6786 74.6733 57.599C71.844 57.4398 69.0147 57.353 66.1855 57.3096C63.3562 57.2661 60.5269 57.2734 57.6904 57.3096C56.2577 57.324 54.8177 57.353 53.3849 57.3747C52.1331 57.3964 50.8596 57.3674 49.6295 57.599C47.5455 57.997 45.0056 60.1388 46.4167 62.6353C46.4528 62.7004 46.4963 62.7655 46.5324 62.8306C45.8378 62.8306 45.1359 62.8162 44.4412 62.8089C43.3486 62.7945 42.1257 62.8017 41.1633 62.1722C40.2082 61.5499 39.7234 60.3559 39.6438 59.1909C39.4411 56.3544 41.3442 53.9955 43.9202 53.5685C44.434 53.4817 44.7379 52.816 44.6221 52.3095C44.4847 51.7234 43.9709 51.4701 43.4499 51.5569C40.8232 51.9983 38.6018 54.1185 37.936 56.8899C37.2414 59.7553 38.1893 63.1346 40.8956 64.3213C42.1764 64.8784 43.6019 64.8712 44.9622 64.8784C46.612 64.8929 48.2546 64.9001 49.9044 64.9146C53.1968 64.9363 56.4964 64.958 59.7888 64.9797C63.4864 65.0087 77.3434 65.0159 79.8688 64.2634C80.8167 63.9812 81.808 63.5036 82.4014 62.6208C83.0888 61.5933 82.9658 60.2691 82.2349 59.3139L82.2277 59.3212ZM79.5504 62.2228C77.5026 62.8885 62.5819 62.7221 58.0305 62.5991C55.5485 62.534 53.0666 62.4761 50.5919 62.4037C49.7959 62.382 48.6309 62.4327 48.1099 61.6295C47.5889 60.8335 48.6164 60.0954 49.217 59.8494C50.0708 59.5021 51.0188 59.4876 51.916 59.4659C53.1534 59.4369 54.3908 59.4152 55.6209 59.3935C58.0956 59.3573 60.5631 59.3356 63.0378 59.3429C67.9366 59.3573 72.8426 59.5021 77.7341 59.8639C78.5952 59.929 80.4549 59.777 80.8746 60.848C81.1785 61.615 80.0497 62.0491 79.5431 62.2156L79.5504 62.2228Z" fill="#D37842"/>
<path d="M94.3406 52.324C91.9021 52.3746 89.0873 52.3819 86.4678 52.3746C86.4606 53.1344 86.4678 53.8942 86.4751 54.654C89.0511 54.6395 92.0034 54.5888 94.5794 54.4948C94.5215 53.7712 94.4492 53.0476 94.3406 52.324Z" fill="#D37842"/>
<path d="M91.2938 57.997C91.1708 55.3052 89.6078 53.2791 87.2851 52.3456C84.9623 51.4122 82.2488 51.5642 79.8103 51.4701C76.8869 51.3543 73.9708 51.2675 71.0474 51.2096C65.1646 51.0866 60.396 50.8478 51.5247 50.8478C42.6533 50.8478 31.9006 50.9853 27.2478 43.9736C27.1321 43.7999 26.5098 62.2662 26.5098 62.2662C30.9454 56.0867 34.9542 54.5092 40.6562 54.075C49.2887 53.952 57.9141 53.8724 66.5466 53.981C72.0098 54.0461 77.4803 54.1764 82.9362 54.4513C84.6512 54.5382 86.945 54.6322 88.0883 56.2531C88.9638 57.4977 88.8408 59.5165 87.7409 60.6092C86.9016 61.4413 85.7148 61.7235 84.6294 61.9334C83.2618 62.2011 74.376 62.628 71.3297 62.2735C70.6133 62.1939 70.5554 65.0376 71.2718 65.1172C74.1589 65.4501 84.5571 65.6961 87.8929 63.8509C89.9696 62.7004 91.4241 60.5223 91.3083 57.997H91.2938Z" fill="#EC8446"/>
<path d="M24.2957 42.056C28.1308 42.6783 28.782 47.0489 28.659 53.0765C28.536 59.1041 27.2914 63.272 23.8398 63.8798C20.3955 64.4877 18.3549 58.9087 18.4779 52.8811C18.6009 46.8535 20.4534 41.4265 24.2884 42.0488L24.2957 42.056Z" fill="#EC8446"/>
<path d="M10.8591 59.1331C10.7361 59.1548 10.6492 59.2778 10.6637 59.4081C10.6782 59.5383 10.7939 59.6324 10.9242 59.6179C13.3555 59.2416 15.7434 58.5325 18.0083 57.5122C18.1023 57.4688 18.1602 57.3675 18.1457 57.259C18.1457 57.2372 18.1385 57.2155 18.1313 57.1866C18.0806 57.0636 17.9504 57.0057 17.8346 57.0563C15.6059 58.0622 13.2542 58.7568 10.8591 59.1258V59.1331Z" fill="#8F8F8F"/>
<path d="M8 54.6033C8 54.7408 8.10131 54.8494 8.23156 54.8494L17.6167 54.8276C17.7397 54.8276 17.841 54.7191 17.841 54.5816V54.5599C17.8265 54.4369 17.7324 54.3428 17.6094 54.3428L8.22433 54.3645C8.10131 54.3645 8 54.4731 8 54.6106V54.6033Z" fill="#8F8F8F"/>
<path d="M9.80816 49.2125C9.77198 49.3427 9.84434 49.4802 9.96735 49.5164L17.8908 51.9404C18.0138 51.9766 18.1368 51.9043 18.173 51.774C18.1802 51.7451 18.1802 51.7089 18.1802 51.6799C18.173 51.5859 18.1079 51.499 18.0138 51.4701L10.0904 49.046C9.96735 49.0099 9.84434 49.0822 9.80816 49.2125V49.2125Z" fill="#8F8F8F"/>
<path d="M11.2914 44.2992C11.2335 44.4222 11.2769 44.5669 11.3854 44.6321L18.2813 48.4744C18.3899 48.5395 18.5274 48.4889 18.5853 48.3731C18.607 48.3297 18.6142 48.279 18.607 48.2356C18.5997 48.156 18.5563 48.0837 18.484 48.0402L11.588 44.1979C11.4795 44.1328 11.342 44.1834 11.2841 44.2992H11.2914Z" fill="#8F8F8F"/>
<path d="M57.4947 52.6278C57.4947 57.3891 57.3789 62.1576 57.3789 66.9189C57.3789 67.9899 59.8536 68.1129 59.8536 66.9913C59.8536 62.23 59.9694 57.4615 59.9694 52.7002C59.9694 51.868 57.4947 51.868 57.4947 52.6278V52.6278Z" fill="#EC8446"/>
<path d="M61.5318 52.6278C61.5318 57.3891 61.416 62.1576 61.416 66.9189C61.416 67.9899 63.8907 68.1129 63.8907 66.9913C63.8907 62.23 64.0065 57.4615 64.0065 52.7002C64.0065 51.868 61.5318 51.868 61.5318 52.6278V52.6278Z" fill="#EC8446"/>
<path d="M65.5709 52.6278C65.5709 57.3891 65.4551 62.1576 65.4551 66.9189C65.4551 67.9899 67.9298 68.1129 67.9298 66.9913C67.9298 62.23 68.0456 57.4615 68.0456 52.7002C68.0456 51.868 65.5709 51.868 65.5709 52.6278V52.6278Z" fill="#EC8446"/>
<path d="M69.608 52.6278C69.608 57.3891 69.4922 62.1576 69.4922 66.9189C69.4922 67.9899 71.9669 68.1129 71.9669 66.9913C71.9669 62.23 72.0827 57.4615 72.0827 52.7002C72.0827 51.868 69.608 51.868 69.608 52.6278V52.6278Z" fill="#EC8446"/>
<path d="M60.034 66.7669C60.034 66.6222 59.9182 66.5209 59.8024 66.5209C59.0065 66.5064 58.2105 66.4992 57.4146 66.4847C57.1541 66.4847 57.1686 66.8248 57.2192 67.1287C57.2699 67.4327 57.5159 67.7655 57.733 67.9247C58.3553 68.3733 60.0991 68.3661 60.0412 66.7669H60.034Z" fill="#EC8446"/>
<path d="M64.0711 66.7669C64.0711 66.6222 63.9554 66.5209 63.8396 66.5209C63.0436 66.5064 62.2476 66.4992 61.4517 66.4847C61.1912 66.4847 61.2057 66.8248 61.2563 67.1287C61.307 67.4327 61.553 67.7655 61.7701 67.9247C62.3924 68.3733 64.1362 68.3661 64.0784 66.7669H64.0711Z" fill="#EC8446"/>
<path d="M68.1102 66.7669C68.1102 66.6222 67.9944 66.5209 67.8786 66.5209C67.0827 66.5064 66.2867 66.4992 65.4908 66.4847C65.2303 66.4847 65.2447 66.8248 65.2954 67.1287C65.346 67.4327 65.5921 67.7655 65.8091 67.9247C66.4314 68.3733 68.1753 68.3661 68.1174 66.7669H68.1102Z" fill="#EC8446"/>
<path d="M72.1473 66.7669C72.1473 66.6222 72.0315 66.5209 71.9157 66.5209C71.1198 66.5064 70.3238 66.4992 69.5278 66.4847C69.2674 66.4847 69.2818 66.8248 69.3325 67.1287C69.3831 67.4327 69.6292 67.7655 69.8462 67.9247C70.4685 68.3733 72.2124 68.3661 72.1545 66.7669H72.1473Z" fill="#EC8446"/>
<path d="M95.2019 55.5874C95.5203 55.6308 95.7446 55.4137 95.7518 55.2401C95.7808 54.0678 95.8025 52.8884 95.8314 51.7161C95.8387 51.3326 95.0499 51.282 94.377 51.4267C93.4146 51.6365 92.9081 52.02 92.5535 52.3457C91.5405 53.2719 92.0976 55.1677 95.1946 55.5874H95.2019Z" fill="#D37842"/>
<path d="M95.2317 51.0649C95.2317 52.6496 95.1738 54.2343 95.1738 55.8189C95.1738 56.1735 96.4401 56.2169 96.4401 55.8407C96.4401 54.256 96.498 52.6713 96.498 51.0866C96.498 50.8116 95.2317 50.8116 95.2317 51.0649V51.0649Z" fill="#EC8446"/>
<path d="M23.5211 44.4077C24.715 45.03 24.8815 46.7594 25.0985 47.9968C25.3663 49.5236 25.5834 51.0648 25.6702 52.6206C25.757 54.2053 25.6991 55.7972 25.3952 57.3529C25.1275 58.7567 24.6354 60.3631 23.3329 61.0071C23.0073 61.1736 23.2244 61.7235 23.55 61.5643C24.7946 60.942 25.4314 59.6033 25.7787 58.243C26.2274 56.4629 26.3287 54.596 26.2418 52.7653C26.155 50.8839 25.8656 49.0243 25.5255 47.1791C25.2867 45.8911 24.9393 44.4801 23.7454 43.8578C23.4198 43.6913 23.2027 44.2413 23.5283 44.4149L23.5211 44.4077Z" fill="white"/>
</svg>
