<svg width="110" height="108" viewBox="0 0 110 108" fill="none" xmlns="http://www.w3.org/2000/svg">
<path d="M24.1722 86.9064C24.0181 86.7702 24.0152 86.517 24.1692 86.3428L81.4872 21.5101C81.6412 21.3359 81.8929 21.3077 82.047 21.444C82.2011 21.5802 82.204 21.8334 82.05 22.0076L24.732 86.8403C24.578 87.0145 24.3263 87.0427 24.1722 86.9064V86.9064Z" fill="#EC8446"/>
<path d="M24.1358 86.123C23.887 86.4044 23.7688 86.6461 24.0502 86.8949C24.3316 87.1436 25.4303 88.115 25.705 88.3579C25.8926 88.5237 27.061 87.2291 26.86 87.0515C26.5921 86.8145 25.5938 85.932 25.3199 85.7018C24.8131 85.2895 24.6562 85.5209 24.1291 86.1171L24.1358 86.123Z" fill="#EC8446"/>
<path d="M78.287 34.9032C80.3691 33.1152 84.9076 29.3453 86.7646 27.2988C89.0963 24.7289 81.7734 19.2813 81.2566 19.3257C80.7339 19.3769 80.2362 20.966 80.1304 21.4096C80.0239 21.8407 84.4475 25.0592 84.3278 26.0993C72.6734 35.7173 48.8394 61.245 40.2434 70.9409C35.3679 76.4421 30.5794 82.0204 25.8908 87.6748C24.7523 89.0436 25.8467 90.3573 26.9971 88.9752C41.2349 71.8176 67.1206 44.5229 78.293 34.8965L78.287 34.9032Z" fill="#686868"/>
</svg>
