<svg width="110" height="108" viewBox="0 0 110 108" fill="none" xmlns="http://www.w3.org/2000/svg">
<rect width="110" height="108" rx="12" fill="#272727"/>
<path d="M45.435 48.3181C45.132 39.2125 45.5512 30.0917 46.6824 21.0518L46.9299 21.0922C47.2986 21.1528 47.6521 20.8195 47.6824 20.466C47.7177 20.072 47.4248 19.7741 47.0561 19.7135C46.5006 19.6226 45.9501 19.5317 45.3946 19.4408C45.0259 19.3802 44.6724 19.7135 44.6421 20.067C44.6068 20.4609 44.8997 20.7589 45.2683 20.8195H45.3138C44.1724 29.8998 43.7533 39.0509 44.0563 48.1918C44.0866 49.0706 45.4653 49.2069 45.435 48.3181Z" fill="#6D6D6D"/>
<path d="M48.2575 12.3249C47.808 12.2189 47.3586 12.1179 46.9041 12.0118C46.6061 11.9411 46.298 12.1987 46.2526 12.4865C46.2021 12.8098 46.4243 13.0724 46.7273 13.138L46.7626 13.1481C46.3132 15.4965 45.9193 17.855 45.5859 20.2185C45.9597 20.2942 46.3384 20.3346 46.7172 20.37C47.0455 18.0418 47.4343 15.7187 47.8737 13.4057C47.9394 13.4208 48.0101 13.436 48.0757 13.4511C48.3737 13.5218 48.6817 13.2643 48.7272 12.9764C48.7777 12.6532 48.5555 12.3906 48.2525 12.3249H48.2575Z" fill="#6D6D6D"/>
<path d="M33.8794 68.0343C32.5411 76.0036 30.5765 83.8567 28.0009 91.5179C27.9302 91.4927 27.8646 91.4674 27.7939 91.4371C27.4858 91.321 27.1171 91.5482 27.0262 91.8512C26.9252 92.1896 27.1272 92.4977 27.4403 92.6189C27.905 92.7956 28.3696 92.9724 28.8342 93.1492C29.1423 93.2653 29.5109 93.0381 29.6018 92.735C29.7029 92.3967 29.5008 92.0886 29.1877 91.9674L29.1524 91.9522C31.7381 84.2658 33.7127 76.3823 35.0561 68.3878C35.1874 67.6151 34.0107 67.2565 33.8794 68.0343V68.0343Z" fill="#6D6D6D"/>
<path d="M33.6529 63.2365C33.5165 64.1354 32.8246 67.5342 33.1226 68.2514C33.5115 69.1857 35.3296 69.3422 35.8851 68.7766C36.3699 68.2817 36.9052 64.8071 37.0769 63.9284C37.183 63.3981 33.6731 63.1001 33.6529 63.2365V63.2365Z" fill="#3A3A3A"/>
<path d="M57.1059 51.6109C60.5703 44.3082 64.6105 37.2934 69.181 30.6321L69.3578 30.7634C69.6254 30.9604 70.0395 30.8442 70.2062 30.5766C70.3981 30.2786 70.287 29.9251 70.0193 29.7281C69.6204 29.4302 69.2214 29.1322 68.8224 28.8393C68.5548 28.6423 68.1406 28.7585 67.974 29.0261C67.7821 29.3241 67.8932 29.6776 68.1608 29.8746L68.1911 29.8998C63.6005 36.5864 59.5451 43.6264 56.0655 50.9543C55.7322 51.6614 56.7624 52.328 57.1008 51.6159L57.1059 51.6109Z" fill="#6D6D6D"/>
<path d="M56.3488 55.7621C56.7225 54.9339 58.3184 51.8532 58.2275 51.0806C58.1063 50.0756 56.4044 49.4291 55.7125 49.823C55.1065 50.1665 53.6469 53.3582 53.2379 54.1562C52.9904 54.641 56.2882 55.8833 56.3438 55.7571L56.3488 55.7621Z" fill="#3A3A3A"/>
<path d="M51.4905 50.4542C52.9146 42.5001 54.9701 34.6672 57.6265 27.0362L57.8336 27.1171C58.1416 27.2383 58.5103 27.016 58.6012 26.713C58.7073 26.3747 58.5053 26.0666 58.1972 25.9454C57.7326 25.7636 57.273 25.5818 56.8084 25.4C56.5003 25.2788 56.1316 25.501 56.0407 25.804C55.9347 26.1424 56.1367 26.4504 56.4448 26.5716L56.4801 26.5868C53.8085 34.243 51.743 42.1011 50.3138 50.0856C50.1774 50.8532 51.349 51.2269 51.4854 50.4542H51.4905Z" fill="#6D6D6D"/>
<path d="M51.8376 54.3784C51.9841 53.4795 52.7113 50.0907 52.4234 49.3686C52.0447 48.4292 50.2316 48.2524 49.666 48.813C49.1761 49.3029 48.6004 52.7674 48.4186 53.6461C48.3075 54.1764 51.8174 54.5148 51.8376 54.3733V54.3784Z" fill="#3A3A3A"/>
<path d="M46.7517 53.5703C46.7012 52.5451 46.7063 48.6362 46.2164 47.909C45.575 46.9646 43.5347 47.1969 43.0499 47.9494C42.6257 48.6059 42.8075 52.5602 42.8125 53.5703C42.8125 54.1814 46.7618 53.7268 46.7517 53.5703Z" fill="#3A3A3A"/>
<path d="M73.0231 56.747C70.3667 54.2622 66.5335 54.3885 63.1347 54.1966C58.9733 53.9643 54.8068 53.732 50.6454 53.4997C46.4436 53.2673 41.9338 52.6916 37.9744 54.4845C34.7776 55.9288 33.0504 59.06 33.0958 62.8325C33.0554 63.1052 33.1665 63.4032 33.4898 63.5345C34.6816 64.0042 35.924 64.2314 37.2067 64.2112C37.6108 64.2062 38.5147 61.974 39.2773 62.0093C40.1763 62.0548 40.9136 62.8527 41.3328 63.58C42.1863 65.0698 42.3883 66.8475 43.2165 68.3625C44.7114 71.1099 47.287 73.1249 50.1404 74.3168C53.5695 75.746 57.4582 76.0137 61.1247 75.6904C64.5993 75.3824 68.0839 74.4228 70.902 72.2967C73.3716 70.4331 75.2654 67.6959 75.6896 64.59C76.0734 61.7821 75.1139 58.6964 73.0231 56.7419V56.747Z" fill="#EC8446"/>
<path d="M37.5313 63.9487C37.3243 64.0346 37.1172 64.1255 36.9102 64.2113C37.0112 64.2113 37.1071 64.2113 37.2081 64.2113C37.294 64.2113 37.4051 64.1053 37.5313 63.9437V63.9487Z" fill="#D2733A"/>
<path d="M36.6981 58.8226C37.0869 60.3478 37.496 61.8679 37.9202 63.3881C38.198 62.9689 38.5111 62.4891 38.8192 62.2215C38.4657 60.9387 38.1222 59.6559 37.794 58.3681C39.0565 57.848 40.314 57.3177 41.5716 56.7874C41.9099 58.4641 42.2735 60.1307 42.6675 61.7972C41.9806 62.0851 41.2938 62.373 40.607 62.6608C40.8999 62.9386 41.1473 63.2719 41.3291 63.5901C41.3342 63.6002 41.3392 63.6103 41.3443 63.6204C41.8746 63.3931 42.4099 63.1709 42.9402 62.9437C43.4098 64.8627 43.9199 66.7717 44.4653 68.6656C44.2027 68.8272 43.9401 68.9837 43.6775 69.1403C43.8947 69.4736 44.127 69.7968 44.3744 70.1049C44.5209 70.019 44.6623 69.9332 44.8088 69.8423C44.9199 70.2261 45.036 70.6049 45.1522 70.9887C45.6724 71.5291 46.243 72.0189 46.8491 72.4684C46.5056 71.3877 46.1673 70.3019 45.8491 69.211C47.2733 68.3373 48.6874 67.4434 50.0863 66.5344C50.6974 68.4636 51.3488 70.3877 52.0357 72.2917C51.2377 72.9027 50.4347 73.5088 49.6267 74.1047C49.7934 74.1805 49.9651 74.2562 50.1368 74.3269C50.3943 74.433 50.6519 74.534 50.9145 74.6249C51.4296 74.2411 51.9448 73.8522 52.4599 73.4583C52.6821 74.0643 52.9094 74.6653 53.1417 75.2663C53.5962 75.3673 54.0507 75.4531 54.5103 75.5289C54.1467 74.5895 53.7881 73.6451 53.4447 72.7007C55.1618 71.3624 56.8536 69.9887 58.5151 68.5848C59.3282 70.1352 60.1666 71.6705 61.0251 73.1957C59.9595 74.0845 58.8788 74.9531 57.7879 75.8117C58.4343 75.8268 59.0757 75.8167 59.7171 75.7915C60.3534 75.2814 60.9898 74.7663 61.616 74.2461C61.8635 74.6855 62.116 75.1248 62.3735 75.5592C62.7927 75.5036 63.2119 75.4329 63.626 75.3572C63.2624 74.7309 62.8987 74.1047 62.5402 73.4734C63.929 72.3018 65.2926 71.1099 66.641 69.8877C67.4238 71.0998 68.2318 72.3018 69.05 73.4886C69.3782 73.3118 69.7065 73.1199 70.0196 72.9128C69.1459 71.6604 68.3076 70.3877 67.4945 69.0999C68.9187 67.7868 70.3226 66.4435 71.6963 65.0799C72.5296 66.2768 73.3679 67.4687 74.2164 68.6605C74.4436 68.2868 74.6507 67.8979 74.8325 67.504C74.0598 66.4233 73.2871 65.3425 72.5195 64.2567C73.5295 63.2366 74.5244 62.1962 75.5092 61.1458C75.4032 60.7064 75.2719 60.2721 75.1052 59.8529C74.0345 61.0145 72.9437 62.1558 71.8326 63.282C70.8377 61.8679 69.858 60.4488 68.8883 59.0146C69.9085 57.9843 70.9135 56.944 71.9033 55.8885C71.5549 55.6713 71.1963 55.4844 70.8226 55.3228C70.2671 55.9137 69.7065 56.4995 69.1409 57.0803C68.8328 57.3934 68.5247 57.7065 68.2167 58.0197C67.5248 56.9844 66.843 55.944 66.1764 54.8936C66.3784 54.7319 66.5804 54.5653 66.7824 54.4037C65.9946 54.3279 65.1966 54.2926 64.4088 54.2572C64.4845 54.3784 64.5603 54.4946 64.636 54.6158C63.4593 55.5501 62.2725 56.4692 61.0756 57.3783C60.6413 56.4692 60.2171 55.5551 59.8029 54.636C59.9545 54.5451 60.1009 54.4592 60.2524 54.3633C60.414 54.2623 60.5756 54.1613 60.7372 54.0603L58.1869 53.9189C58.2172 53.9896 58.2475 54.0552 58.2778 54.1259C56.8637 54.9643 55.4345 55.7673 53.98 56.545C53.6012 55.6915 53.2275 54.8431 52.8589 53.9845C52.8084 53.8633 52.7528 53.7371 52.7023 53.6158C52.268 53.5906 51.8286 53.5653 51.3943 53.5451C51.8993 54.737 52.4094 55.9188 52.9346 57.1005C51.6721 57.757 50.3994 58.3833 49.1065 58.9893C48.6672 57.3581 48.2581 55.7167 47.8743 54.0704C48.3591 53.8583 48.8439 53.6411 49.3237 53.4239C48.3843 53.3633 47.4349 53.2977 46.4854 53.2623C46.4955 53.3027 46.5006 53.3431 46.5107 53.3835C45.4097 53.8583 44.3088 54.3279 43.2129 54.8027C42.9553 54.9138 42.6978 55.0198 42.4402 55.1309C42.42 55.0249 42.3998 54.9188 42.3796 54.8128C42.2887 54.338 42.2028 53.8583 42.117 53.3835C41.7281 53.429 41.3392 53.4896 40.9554 53.5603C41.0766 54.2421 41.2029 54.9188 41.3342 55.6006C40.0565 56.141 38.7788 56.6813 37.496 57.2116C37.3142 56.4844 37.1374 55.7572 36.9607 55.0299C36.592 55.2622 36.2536 55.5147 35.9355 55.7976C36.087 56.4187 36.2385 57.045 36.3951 57.6661C35.5517 58.0146 34.7083 58.358 33.8598 58.7014C33.6578 59.1711 33.4962 59.666 33.375 60.1761C34.481 59.7317 35.587 59.2772 36.693 58.8226H36.6981ZM53.0255 71.5291C52.3538 69.6504 51.7175 67.7616 51.1165 65.8627C52.6265 64.8678 54.1214 63.8527 55.6011 62.8174C56.3637 64.3931 57.1516 65.9536 57.9546 67.5091C56.3385 68.8827 54.6921 70.2211 53.0205 71.524L53.0255 71.5291ZM61.9493 72.423C61.0908 70.8927 60.2575 69.3524 59.4393 67.802C60.7423 66.6808 62.0301 65.5395 63.2977 64.3779C64.1563 65.9081 65.0552 67.403 65.9895 68.8777C64.6613 70.0847 63.3129 71.2665 61.9443 72.423H61.9493ZM71.0145 64.1002C69.656 65.4536 68.2722 66.7818 66.8632 68.0848C65.9441 66.5899 65.0653 65.0698 64.2219 63.5295C65.5299 62.3124 66.8177 61.0751 68.0854 59.8175C69.055 61.2518 70.0297 62.681 71.0145 64.1002V64.1002ZM65.2825 55.6107C65.9188 56.5904 66.5703 57.5651 67.2218 58.5348C67.2874 58.6307 67.3531 58.7267 67.4187 58.8277C66.1814 60.06 64.9239 61.272 63.6462 62.4639C62.9392 61.1458 62.2624 59.8125 61.6008 58.4641C62.8381 57.5298 64.0654 56.5753 65.2825 55.6107V55.6107ZM61.9291 61.8225C62.1867 62.3225 62.4543 62.8224 62.722 63.3174C61.4594 64.4739 60.1817 65.6102 58.8889 66.7263C58.101 65.2062 57.3334 63.6759 56.591 62.1356C57.9495 61.1761 59.2929 60.2014 60.6211 59.2065C61.0453 60.0852 61.4847 60.9589 61.9291 61.8275V61.8225ZM58.7828 55.2521C59.2121 56.2117 59.6514 57.1662 60.1009 58.1156C58.7677 59.1105 57.4243 60.0903 56.0658 61.0498C55.5203 59.9085 54.9901 58.7671 54.4699 57.6156C55.9244 56.8632 57.3586 56.0804 58.7777 55.2471L58.7828 55.2521ZM53.4245 58.156C53.9699 59.358 54.5254 60.5498 55.0911 61.7417C53.6618 62.7416 52.2124 63.7264 50.758 64.686C50.2883 63.1608 49.8439 61.6255 49.4196 60.0852C50.763 59.464 52.1013 58.8226 53.4245 58.156ZM49.7328 65.3577C48.3389 66.2667 46.9349 67.1556 45.5208 68.0242C44.9956 66.1809 44.5057 64.3274 44.0512 62.4689C45.4855 61.8528 46.9147 61.2266 48.3338 60.5801C48.7732 62.1811 49.2429 63.7719 49.7328 65.3577ZM46.7935 54.54C47.1824 56.1915 47.5965 57.8379 48.0359 59.4792C47.8793 59.5499 47.7228 59.6256 47.5612 59.6963C46.3036 60.2569 45.0411 60.7973 43.7785 61.3326C43.3846 59.666 43.021 57.9944 42.6877 56.3177C44.0613 55.7319 45.4299 55.141 46.7935 54.54Z" fill="#D2733A"/>
<path d="M84.003 50.7422C83.2051 50.8028 82.4172 50.7725 81.6345 50.6513C82.1294 50.6968 82.6293 50.7069 83.1293 50.6816C83.3263 50.6715 83.3364 50.3634 83.1344 50.3735C82.8263 50.3887 82.5233 50.3887 82.2203 50.3786C82.6496 50.3129 83.0788 50.217 83.503 50.0958C83.6899 50.0402 83.6192 49.7423 83.4273 49.7978C82.5687 50.0453 81.7051 50.1766 80.8163 50.1917C80.7305 50.0958 80.6092 50.0251 80.4375 50.0251C80.3163 50.0251 80.2103 50.0604 80.1295 50.116C76.1802 49.3433 72.1097 48.5201 68.4382 46.7475C64.2818 44.7375 61.2921 41.7124 60.0194 38.2277L60.0093 38.2024C60.58 38.2479 61.1506 38.3136 61.691 38.4348C63.2667 38.7984 64.6404 39.6367 66.0999 40.5205C66.6807 40.874 67.2816 41.2376 67.8877 41.5659C69.4129 42.3891 72.2915 43.5608 74.7409 42.374C74.7661 42.374 74.7964 42.3841 74.8217 42.3841C74.958 42.3841 75.0641 42.3437 75.1499 42.2729C75.8822 42.2275 76.5993 42.1164 77.3114 41.9245C77.5033 41.874 77.4276 41.576 77.2357 41.6265C76.9125 41.7124 76.5943 41.7831 76.266 41.8386C76.8923 41.6265 77.4831 41.3235 78.0286 40.9346C78.1902 40.8235 78.0387 40.5508 77.8771 40.667C77.3266 41.0558 76.7408 41.3538 76.1196 41.5659C76.8872 41.1871 77.5892 40.7023 78.2205 40.1013C78.3619 39.965 78.1498 39.7428 78.0084 39.8791C77.5639 40.3033 77.0842 40.672 76.564 40.9851C76.7357 40.8437 76.8973 40.6922 77.0488 40.5256C77.1852 40.3842 76.9731 40.1569 76.8367 40.3034C76.4882 40.6771 76.0943 40.9902 75.66 41.2477C76.0994 40.7983 76.468 40.2882 76.7559 39.7125C76.8418 39.5357 76.5842 39.3741 76.4933 39.5509C76.1852 40.167 75.7812 40.7124 75.2913 41.177C75.7863 40.5963 76.1549 39.9145 76.3721 39.167C76.4276 38.9751 76.1347 38.8893 76.0792 39.0812C75.8317 39.9498 75.3772 40.7023 74.7409 41.3235C74.5186 41.3639 74.3823 41.5306 74.3368 41.7225C72.2056 42.7022 69.6351 41.6417 68.2563 40.8942C67.6655 40.5761 67.0746 40.2175 66.5039 39.869C65.0595 38.9903 63.5647 38.0762 61.8678 37.6873C61.1759 37.5257 60.4588 37.4601 59.7517 37.4146C59.6457 37.0661 59.5447 36.7126 59.4487 36.3692C58.9992 34.7683 58.5346 33.1118 57.3529 31.8694C55.7873 30.2332 53.3834 29.7887 51.237 29.5716C51.1512 29.5615 51.0653 29.5564 50.9794 29.5463C50.3179 27.6474 49.5098 25.8091 47.9139 24.5819C47.1564 24.0012 46.3433 23.688 45.5706 23.6729C44.5959 23.6577 43.702 24.1527 43.293 24.9253C42.7475 25.9556 43.1011 27.6575 44.8282 28.7736C46.4898 29.8493 48.4745 30.0715 50.4138 30.2584C50.4946 30.4958 50.5704 30.7331 50.6461 30.9654L50.732 31.218C51.5451 33.6825 52.6006 36.1217 54.8227 37.2833C56.1408 37.9701 57.6256 38.056 59.0598 38.1368H59.181C59.2214 38.258 59.2568 38.3742 59.3023 38.4853C60.6406 42.1568 63.7667 45.3334 68.1048 47.4343C71.8622 49.2524 75.9832 50.0806 79.983 50.8685C80.0638 50.9998 80.2052 51.0957 80.4123 51.0957C80.5284 51.0957 80.6193 51.0654 80.7002 51.0149C81.3668 51.4543 82.0486 51.8583 82.7556 52.227C82.9324 52.3179 83.094 52.0553 82.9172 51.9644C82.3617 51.6715 81.8163 51.3583 81.2809 51.025C82.0183 51.3179 82.7859 51.4745 83.5889 51.4947C83.7859 51.4947 83.796 51.1917 83.594 51.1866C83.1748 51.1765 82.7607 51.126 82.3617 51.0351C82.897 51.0755 83.4424 51.0806 83.9879 51.0351C84.1848 51.02 84.1899 50.7119 83.9929 50.7271L84.003 50.7422ZM45.2525 28.1373C44.2374 27.4808 43.4849 26.2334 43.9798 25.289C44.2475 24.7839 44.8686 24.4456 45.5353 24.4456H45.5656C46.3332 24.4557 47.015 24.8597 47.4544 25.193C48.7977 26.2233 49.5452 27.7989 50.1462 29.4655C48.4139 29.2888 46.6665 29.0463 45.2525 28.1323V28.1373ZM55.1863 36.6167C53.2066 35.5864 52.2319 33.3037 51.4693 30.9957L51.3835 30.7432C51.3431 30.6119 51.2976 30.4857 51.2572 30.3544C53.242 30.5614 55.4338 30.9705 56.8024 32.4098C57.8528 33.5108 58.272 35.0056 58.7164 36.5864C58.7922 36.849 58.8629 37.1116 58.9437 37.3742C57.5902 37.2985 56.3125 37.2075 55.1863 36.6167V36.6167Z" fill="#EC8446"/>
<path d="M70.0176 29.7281C69.6186 29.4302 69.2196 29.1322 68.8207 28.8393C68.553 28.6423 68.1389 28.7585 67.9722 29.0261C67.7803 29.3241 67.8914 29.6776 68.1591 29.8746L68.1894 29.8998C65.9824 33.1118 63.9017 36.4096 61.9473 39.7781C62.2806 40.0205 62.629 40.2276 62.9876 40.4296C64.9269 37.0914 66.9874 33.8188 69.1742 30.6321L69.3509 30.7634C69.6186 30.9604 70.0327 30.8442 70.1994 30.5766C70.3913 30.2786 70.2802 29.9251 70.0125 29.7281H70.0176Z" fill="#6D6D6D"/>
<path d="M58.2027 25.9454C57.738 25.7636 57.2785 25.5818 56.8138 25.4C56.5058 25.2788 56.1371 25.501 56.0462 25.804C55.9402 26.1424 56.1422 26.4504 56.4502 26.5716L56.4856 26.5868C55.7028 28.8291 54.9756 31.0865 54.2988 33.3592C54.6725 33.5359 55.0412 33.7228 55.4301 33.8743C56.1119 31.5764 56.8442 29.2988 57.632 27.0362L57.839 27.1171C58.1471 27.2383 58.5158 27.016 58.6067 26.713C58.7127 26.3747 58.5107 26.0666 58.2027 25.9454Z" fill="#6D6D6D"/>
<path d="M45.7213 31.0816C45.8223 29.5917 45.9385 28.0969 46.0748 26.6121C45.6506 26.4404 45.1759 26.3798 44.7062 26.3444C44.5648 27.8342 44.4487 29.3291 44.3477 30.824C44.8072 30.8896 45.2668 30.9805 45.7213 31.0816V31.0816Z" fill="#6D6D6D"/>
</svg>
