<svg width="110" height="108" viewBox="0 0 110 108" fill="none" xmlns="http://www.w3.org/2000/svg">
<path d="M36.3324 77.79C38.0344 76.4058 39.2329 74.5004 40.676 72.8169C42.136 71.1132 44.0159 70.2116 45.94 69.3229C49.0754 67.875 52.4634 65.7057 53.4483 60.617C54.2071 56.6952 51.2855 51.5041 47.8898 49.7503C47.01 49.2964 46.1268 49.0563 45.2536 48.9728C44.4102 48.7798 43.5451 48.7443 42.6995 48.8869C40.5416 49.2529 38.6666 50.4614 36.605 51.1524C34.5326 51.8482 32.3087 51.9147 30.1281 51.9623C25.9785 52.0557 21.3848 52.1492 18.2399 55.4099C16.802 56.898 15.8852 58.8739 15.6846 61.1497C15.4739 63.565 15.985 66.0266 16.8331 68.316C17.6771 70.5813 18.7723 72.8468 20.1076 74.8212C21.3695 76.6858 22.9509 78.3085 24.8371 79.2708C28.7464 81.2581 33.1073 80.4226 36.3371 77.8008L36.3324 77.79Z" fill="#E98449"/>
<path d="M43.4175 63.2887C48.2505 61.1858 45.1667 53.5807 40.3121 55.6929C35.4575 57.8052 38.5629 65.4009 43.4175 63.2887Z" fill="#444444"/>
<path d="M45.6849 60.7954C45.3511 61.108 44.9457 61.3745 44.4532 61.5888C40.865 63.15 38.2419 59.3995 39.0737 56.4887C36.112 59.2384 39.0464 65.1836 43.4085 63.2856C44.6695 62.7369 45.3899 61.8185 45.6826 60.79L45.6849 60.7954Z" fill="#2B2B2B"/>
<path d="M85.6756 42.7905C86.4413 42.5089 86.6486 41.4467 86.2398 40.6848C86.0042 40.2467 85.6414 39.9604 85.247 39.8231C85.2376 39.8014 85.2305 39.7852 85.2211 39.7636C84.7521 38.8927 83.8196 38.584 83.065 38.9059C74.8699 42.3943 62.0025 47.6003 49.1905 53.1555L51.6241 58.5269C67.1706 50.9129 82.8658 43.8329 85.681 42.7882L85.6756 42.7905Z" fill="black"/>
<path d="M89.1923 37.6886C89.0605 37.3855 87.8323 34.8882 87.6981 34.5797C87.9388 34.3785 88.0926 34.0219 88.0786 33.7383C88.0587 33.2192 87.5787 32.7522 87.073 32.9657C86.7869 32.9293 86.5207 33.013 86.4382 33.3707C86.414 33.4778 86.4178 33.6048 86.4426 33.7357C86.3793 33.9306 86.3735 34.1391 86.4295 34.3271C86.4974 34.5422 86.6836 34.7186 86.9259 34.684C86.9631 34.6806 86.9902 34.6689 87.025 34.6602C87.0686 34.6863 87.1175 34.71 87.1672 34.7206C87.2688 34.7472 87.3642 34.7443 87.45 34.7198C87.5819 35.0229 88.8077 37.5148 88.9373 37.8124C89.0103 37.9802 89.2677 37.8618 89.1947 37.694L89.1923 37.6886ZM87.4461 33.8526C87.4016 33.9427 87.3037 34.0433 87.2174 34.1259C87.2103 34.1097 87.1978 34.0958 87.183 34.0765C87.0841 33.9972 87.0907 33.9235 87.195 33.8524C87.2323 33.7461 87.298 33.7046 87.3973 33.7258C87.4161 33.7691 87.435 33.8124 87.4406 33.855L87.4461 33.8526ZM86.7532 33.7099C86.7532 33.7099 86.7654 33.6789 86.7769 33.661C86.7965 33.6911 86.8245 33.7111 86.8579 33.7287C86.8243 33.8142 86.8217 33.9119 86.8378 34.0079C86.8001 33.9213 86.7624 33.8347 86.7349 33.7566C86.741 33.741 86.7471 33.7255 86.7532 33.7099V33.7099ZM87.7754 33.5741C87.7255 33.5186 87.6509 33.4803 87.5671 33.4652C87.5624 33.4544 87.5554 33.4382 87.5452 33.4297C87.6074 33.4541 87.6639 33.436 87.6977 33.3955C87.7345 33.4504 87.7604 33.5099 87.7731 33.5687L87.7754 33.5741Z" fill="black"/>
<path d="M85.1835 40.0256C84.9752 39.7687 83.4566 37.4621 83.2506 37.2106C83.3123 37.1452 83.3591 37.0604 83.3857 36.9588C83.3962 36.9091 83.399 36.8564 83.3964 36.806C83.4188 36.7834 83.4466 36.7585 83.4665 36.7305C83.6065 36.5344 83.5377 36.2876 83.3772 36.1257C83.2392 35.9862 83.0481 35.902 82.8519 35.8651C82.7452 35.7827 82.6348 35.7214 82.5278 35.6971C82.1754 35.6123 81.9773 35.8079 81.8757 36.0774C81.4529 36.4223 81.6487 37.0644 82.0973 37.3262C82.3461 37.469 82.733 37.5002 83.0198 37.3754C83.2305 37.6378 84.7545 39.942 84.9597 40.2067C85.0737 40.3502 85.2998 40.1746 85.1859 40.031L85.1835 40.0256ZM82.3915 36.7155C82.4205 36.6192 82.4939 36.5808 82.5962 36.5942C82.7052 36.5339 82.7751 36.5615 82.8029 36.6845C82.8123 36.7062 82.8248 36.7201 82.8318 36.7363C82.7189 36.7726 82.5874 36.8105 82.4843 36.8103C82.4461 36.7818 82.4188 36.7486 82.3892 36.7101L82.3915 36.7155ZM82.7263 36.1386C82.7894 36.1948 82.8487 36.272 82.9056 36.3437C82.827 36.2814 82.7392 36.2424 82.65 36.2297C82.6467 36.1925 82.6434 36.1553 82.6239 36.1252C82.6425 36.1235 82.6634 36.1273 82.6766 36.128C82.6898 36.1287 82.7107 36.1325 82.7239 36.1332L82.7263 36.1386ZM81.9628 36.8248C82.0115 36.8036 82.0586 36.7638 82.0644 36.7033C82.0691 36.7141 82.0762 36.7304 82.0809 36.7412C82.0581 36.8219 82.0562 36.9064 82.0814 36.9791C82.0308 36.9368 81.991 36.8897 81.9597 36.8325L81.9628 36.8248Z" fill="black"/>
<path d="M89.8167 39.8312C89.9486 40.1342 90.9363 42.7297 91.0658 43.0274C90.9893 43.0735 90.9223 43.1413 90.8724 43.2338C90.8463 43.2774 90.8357 43.327 90.8197 43.379C90.7873 43.3932 90.7626 43.4103 90.7348 43.4353C90.5496 43.5867 90.5464 43.8455 90.6575 44.0418C90.7515 44.2133 90.9111 44.3434 91.0991 44.4354C91.178 44.5427 91.2684 44.6321 91.3632 44.6873C91.6789 44.8654 91.9215 44.7277 92.0923 44.4989C92.5956 44.2799 92.5733 43.6073 92.2124 43.2365C92.0145 43.033 91.6487 42.9025 91.3374 42.9414C91.2055 42.6383 90.2155 40.0374 90.0812 39.7289C90.0082 39.5612 89.7461 39.6688 89.8191 39.8366L89.8167 39.8312ZM91.7602 43.7358C91.7057 43.8175 91.6252 43.8396 91.5296 43.7975C91.4066 43.8253 91.3482 43.7799 91.3576 43.6535C91.3481 43.6319 91.3411 43.6156 91.3448 43.5947C91.4665 43.5932 91.599 43.5871 91.7007 43.6137C91.728 43.6468 91.7468 43.6901 91.7657 43.7334L91.7602 43.7358ZM91.2808 44.2019C91.237 44.1308 91.1993 44.0442 91.167 43.9553C91.2209 44.0348 91.2995 44.0971 91.385 44.1308C91.3751 44.1672 91.3707 44.2014 91.3794 44.2362C91.3638 44.2301 91.3429 44.2263 91.3274 44.2202C91.3118 44.2141 91.2963 44.208 91.2808 44.2019V44.2019ZM92.2013 43.7434C92.1455 43.7484 92.0937 43.7773 92.0723 43.8317C92.0676 43.8209 92.0629 43.8101 92.0612 43.7915C92.105 43.7145 92.1302 43.6392 92.1235 43.5648C92.1603 43.6196 92.1862 43.6792 92.1989 43.738L92.2013 43.7434Z" fill="black"/>
<path d="M85.3542 41.1159C85.4025 41.4489 86.0497 44.1346 86.1035 44.4652C85.8166 44.59 85.5757 44.8943 85.5106 45.1737C85.3886 45.6773 85.7251 46.2583 86.2734 46.1871C86.5398 46.2964 86.818 46.2848 86.996 45.9692C87.0513 45.8744 87.0816 45.7517 87.0941 45.6176C87.2063 45.4465 87.2695 45.2516 87.2615 45.0556C87.2525 44.8278 87.1211 44.6146 86.8799 44.5779C86.8457 44.5735 86.814 44.5744 86.7768 44.5777C86.7417 44.5415 86.7012 44.5076 86.6577 44.4815C86.5706 44.4293 86.4767 44.4058 86.3814 44.4086C86.3354 44.0811 85.6828 41.3977 85.6392 41.0755C85.6118 40.8943 85.337 40.9431 85.3566 41.1213L85.3542 41.1159ZM86.1472 45.2314C86.2173 45.1559 86.3347 45.0855 86.4383 45.0276C86.4453 45.0438 86.4524 45.06 86.4564 45.084C86.5275 45.1882 86.5054 45.2558 86.3816 45.2968C86.3186 45.3886 86.2435 45.4084 86.1534 45.3639C86.1454 45.3159 86.1451 45.271 86.1449 45.226L86.1472 45.2314ZM86.7775 45.5558C86.7775 45.5558 86.7575 45.5838 86.7437 45.5963C86.7295 45.5638 86.7154 45.5313 86.685 45.5059C86.742 45.4297 86.7732 45.3388 86.7758 45.2411C86.7949 45.3294 86.8055 45.4278 86.8036 45.5122C86.7952 45.5224 86.7836 45.5402 86.7752 45.5504L86.7775 45.5558ZM85.7568 45.4141C85.7875 45.4845 85.8536 45.533 85.9306 45.5767C85.9353 45.5875 85.9423 45.6038 85.9471 45.6146C85.8988 45.5777 85.8353 45.5796 85.7889 45.6062C85.763 45.5466 85.7611 45.4831 85.7646 45.4172L85.7568 45.4141Z" fill="black"/>
<path d="M93.3011 39.647C93.3401 39.5592 93.3792 39.4714 93.4104 39.3805C94.4598 38.5377 94.6683 37.0052 93.6801 36.0062C93.0528 35.378 92.2447 35.2663 91.4106 35.2429C90.5861 34.5461 89.6848 33.9985 88.5734 34.4177C86.9037 35.0477 79.5961 39.6883 79.6617 40.342C79.7436 41.1367 80.8533 43.0805 81.4796 44.5201C81.6351 44.8773 90.0172 43.1355 91.3246 42.7082C92.8153 42.2141 93.2219 41.0331 93.3065 39.6446L93.3011 39.647Z" fill="#3A3A3A"/>
<path d="M84.7096 38.5124C84.387 37.7709 83.2224 38.2454 83.545 38.9869C83.8677 39.7284 85.0322 39.2538 84.7096 38.5124Z" fill="white"/>
<path d="M86.3229 42.2196C86.0002 41.4782 84.8357 41.9527 85.1583 42.6941C85.4809 43.4356 86.6455 42.9611 86.3229 42.2196Z" fill="white"/>
<path d="M89.6158 37.4337C89.2932 36.6923 88.1287 37.1668 88.4513 37.9082C88.7739 38.6497 89.9384 38.1752 89.6158 37.4337Z" fill="white"/>
<path d="M90.4283 39.3063C90.1057 38.5648 88.9412 39.0393 89.2638 39.7808C89.5864 40.5222 90.7509 40.0477 90.4283 39.3063Z" fill="white"/>
<path d="M27.959 68.6763C43.0766 61.4228 64.6018 51.6323 86.0611 42.2373C86.1531 42.1973 86.2046 42.1234 86.1888 42.0723C86.1676 42.0236 86.0784 42.0109 85.9864 42.051C68.7168 49.6101 46.6825 59.429 27.8796 68.4791C27.9079 68.5441 27.9361 68.609 27.9644 68.674L27.959 68.6763Z" fill="white"/>
<path d="M26.8379 65.791C43.8406 57.8846 68.7597 46.8555 89.1952 38.0219C89.2872 37.9818 89.3441 37.9056 89.3229 37.8569C89.2994 37.8027 89.2125 37.7955 89.1205 37.8355C68.6905 46.6668 43.7713 57.6958 26.7686 65.6022C26.7946 65.6618 26.8174 65.7291 26.8379 65.791V65.791Z" fill="white"/>
<path d="M27.3472 67.1344C44.3499 59.228 69.3046 48.177 89.7641 39.3394C89.8561 39.2994 89.913 39.2231 89.8918 39.1744C89.8682 39.1203 89.7814 39.113 89.6894 39.153C69.2323 47.996 44.2752 59.0416 27.2726 66.948C27.2985 67.0075 27.3213 67.0748 27.3418 67.1367L27.3472 67.1344Z" fill="white"/>
<path d="M26.1641 64.3013C46.5477 55.0525 68.4374 45.5669 84.2911 39.1324C84.3831 39.0923 84.4423 39.0215 84.4266 38.9704C84.403 38.9163 84.3216 38.9067 84.2272 38.9413C68.3573 45.3829 46.4352 54.8827 26.0354 64.1385C26.0775 64.1909 26.122 64.2488 26.1587 64.3036L26.1641 64.3013Z" fill="white"/>
<path d="M24.5617 63.5049C24.4519 63.8294 27.2207 70.2521 27.55 70.3728C27.8792 70.4934 29.1544 70.1253 29.2997 69.6308C29.4504 69.1339 26.5927 62.8915 26.3115 62.7629C26.0302 62.6342 24.6715 63.1803 24.5617 63.5049Z" fill="#3A3A3A"/>
</svg>
