<svg width="110" height="108" viewBox="0 0 110 108" fill="none" xmlns="http://www.w3.org/2000/svg">
<rect width="110" height="108" rx="12" fill="#272727"/>
<path d="M70.374 42.3186L55.7327 46.9886C55.7327 46.9886 66.2149 64.5189 64.4532 65.9883C62.6915 67.4577 45.9603 41.051 35.9694 25.9977C34.1397 23.237 31.8366 20.1692 28.7567 19.8299C25.7396 19.5009 22.4703 23.3854 20.8067 25.7893L21.9633 27.0729C21.9633 27.0729 25.4479 23.1447 27.949 23.5794C29.9161 23.923 31.3621 25.8495 32.4934 27.6384C42.0064 42.653 47.201 60.2466 58.4943 73.9634C60.3621 76.228 62.4625 78.4303 65.0461 79.6319C68.1227 81.0648 71.6942 80.8783 74.3354 79.2085C76.9725 77.5417 78.633 74.4556 78.7702 71.1202C78.9573 66.5157 75.3223 54.1641 70.381 42.3198L70.374 42.3186Z" fill="#EC8446"/>
<path d="M72.3443 39.1008C73.6563 43.0287 70.0906 45.6342 64.6798 48.246C59.2691 50.8578 54.971 51.5604 52.7548 48.5534C50.5385 45.5465 55.0306 43.2435 60.4413 40.6316C65.8521 38.0198 71.0364 35.1699 72.3443 39.1008Z" fill="#EC8446"/>
<path d="M20.7974 25.7951L21.9581 27.0758L19.314 29.7712L18.4327 28.9309L20.7974 25.7951Z" fill="#BB6938"/>
<path d="M45.2925 40.8702C44.8132 41.19 44.704 41.6815 44.8304 42.1148C44.2615 42.4557 43.6927 42.7967 43.1238 43.1376C42.702 43.3914 43.1409 44.0194 43.5627 43.7655C44.1234 43.4304 44.6841 43.0953 45.246 42.7533C45.5768 43.0334 46.0497 43.1252 46.5208 42.8113C47.7524 41.9941 46.5322 40.0472 45.2965 40.8673L45.2925 40.8702Z" fill="#BB6938"/>
<path d="M48.1281 45.1517C47.6529 45.4686 47.5221 45.9386 47.6083 46.3761C46.9368 46.8401 46.2343 47.2525 45.4909 47.6079C45.0509 47.8192 45.3056 48.5426 45.7456 48.3312C46.5204 47.9594 47.2601 47.5388 47.963 47.0584C48.3179 47.4322 48.8754 47.5988 49.4349 47.2276C50.7466 46.359 49.444 44.2802 48.1281 45.1517V45.1517Z" fill="#BB6938"/>
<path d="M50.7505 49.1074C50.1992 49.4727 50.0576 50.0307 50.1766 50.5309C49.4185 51.0633 48.6342 51.5591 47.8264 52.0224C47.3988 52.2681 47.8417 52.8931 48.2653 52.6503C49.0446 52.2075 49.7976 51.7281 50.5341 51.2173C50.9306 51.6661 51.5755 51.8686 52.2233 51.4401C53.7035 50.4627 52.2348 48.1271 50.7505 49.1074V49.1074Z" fill="#BB6938"/>
<path d="M54.1674 54.2592C53.54 54.673 53.3928 55.309 53.5364 55.8779C52.6589 56.3728 51.7774 56.8706 50.8999 57.3655C50.4693 57.6071 50.9123 58.2321 51.3388 57.9934C52.189 57.512 53.038 57.0375 53.8881 56.5561C54.325 57.0869 55.0649 57.3443 55.8021 56.8516C57.4439 55.7643 55.8173 53.1661 54.1674 54.2592V54.2592Z" fill="#BB6938"/>
<path d="M57.7634 59.684C56.9705 60.2107 56.8722 61.052 57.1587 61.7339C56.3359 62.2019 55.4814 62.6001 54.5912 62.9315C54.129 63.1033 54.3837 63.8267 54.8459 63.6548C55.7977 63.2976 56.7109 62.8696 57.5895 62.3677C58.0786 62.8424 58.816 63.0277 59.5561 62.5391C61.3622 61.346 59.5737 58.488 57.7594 59.6869L57.7634 59.684Z" fill="#BB6938"/>
<path d="M49.1433 35.5242C49.0429 35.393 48.849 35.372 48.7247 35.4736C48.5934 35.5741 48.5695 35.7639 48.6741 35.8922C50.6754 38.437 52.9943 40.7289 55.5714 42.6935C55.6798 42.7759 55.8242 42.7708 55.9258 42.6978C55.9502 42.6802 55.9746 42.6627 55.9862 42.6359C56.0871 42.5017 56.0638 42.315 55.9297 42.2141C53.3941 40.2814 51.1154 38.0284 49.1445 35.5172L49.1433 35.5242Z" fill="#8F8F8F"/>
<path d="M52.096 29.4819C51.9531 29.5661 51.9053 29.7484 51.9855 29.8943L58.1761 40.5943C58.2604 40.7373 58.4427 40.785 58.5885 40.7049C58.5967 40.6991 58.6048 40.6932 58.6129 40.6874C58.7349 40.5997 58.7775 40.4273 58.6991 40.2925L52.5084 29.5924C52.4242 29.4495 52.2419 29.4017 52.096 29.4819V29.4819Z" fill="#8F8F8F"/>
<path d="M59.0208 28.248C58.8597 28.2898 58.7612 28.4531 58.803 28.6142L61.4305 39.1433C61.4723 39.3044 61.6356 39.4029 61.7967 39.3611C61.8339 39.3529 61.8694 39.3336 61.8978 39.3131C61.9954 39.243 62.044 39.1218 62.0145 38.995L59.3869 28.4658C59.3452 28.3047 59.1819 28.2063 59.0208 28.248Z" fill="#8F8F8F"/>
<path d="M65.2287 26.9255C65.0623 26.9342 64.9352 27.0748 64.9409 27.2372L65.3721 37.4641C65.3808 37.6305 65.5214 37.7576 65.6838 37.7519C65.7449 37.7511 65.8024 37.7283 65.8472 37.6961C65.9244 37.6406 65.9765 37.5415 65.9716 37.4403L65.5403 27.2133C65.5317 27.0469 65.3911 26.9198 65.2287 26.9255V26.9255Z" fill="#8F8F8F"/>
<path d="M46.0993 42.5483C46.186 42.523 46.2679 42.4826 46.3371 42.4329C46.4916 42.3219 46.607 42.165 46.6588 41.9798C46.7343 41.7159 46.6624 41.4099 46.4773 41.2038C46.4353 41.1539 46.3573 41.1483 46.3103 41.1944C46.2603 41.2365 46.2547 41.3145 46.3009 41.3615C46.4311 41.5084 46.4817 41.7247 46.4258 41.9129C46.3699 42.1011 46.2184 42.2592 46.0259 42.3174C45.9614 42.3391 45.9261 42.4015 45.9478 42.466C45.9695 42.5306 46.0319 42.5659 46.0964 42.5442L46.0993 42.5483Z" fill="white"/>
<path d="M49.3593 45.6616C49.3035 45.6955 49.2811 45.7672 49.315 45.823C49.4232 46.0165 49.4402 46.2632 49.3639 46.466C49.2836 46.6717 49.1048 46.8433 48.8961 46.9132C48.8315 46.9349 48.7991 47.0013 48.8209 47.0659C48.8426 47.1304 48.909 47.1628 48.9736 47.1411C49.0684 47.11 49.1584 47.0637 49.2398 47.0053C49.3983 46.8914 49.5207 46.7356 49.5894 46.5567C49.6952 46.2834 49.6727 45.9605 49.5277 45.7071C49.4938 45.6513 49.4221 45.6289 49.3663 45.6628L49.3593 45.6616Z" fill="white"/>
<path d="M56.0086 54.9408C55.9452 54.9555 55.9087 55.0249 55.9235 55.0883C56.0064 55.3925 55.9393 55.7366 55.7479 55.9851C55.5565 56.2336 55.238 56.3824 54.9266 56.378C54.8585 56.3776 54.8034 56.4296 54.803 56.4977C54.8026 56.5658 54.8545 56.6209 54.9226 56.6213C55.1939 56.6299 55.4672 56.5383 55.6867 56.3805C55.7803 56.3133 55.8691 56.231 55.9381 56.1382C56.1787 55.8297 56.2625 55.4057 56.1549 55.0329C56.1402 54.9695 56.0709 54.9331 56.0075 54.9478L56.0086 54.9408Z" fill="white"/>
<path d="M35.573 25.3877C34.9829 25.4417 34.4817 26.0054 34.6958 26.6037C34.7592 26.7863 34.8736 26.9198 35.02 27.012L33.9624 27.5993C33.7607 27.7134 33.9234 28.0342 34.1251 27.9201L35.2931 27.2719C35.4221 27.3827 35.5847 27.4632 35.7745 27.4871C36.4086 27.5802 36.9908 27.0261 36.9477 26.3913C36.9005 25.7593 36.1601 25.3295 35.577 25.3847L35.573 25.3877ZM36.195 26.3649C36.2688 26.5276 36.2303 26.6971 36.0256 26.7641C36.1202 26.6468 36.1821 26.5098 36.195 26.3649ZM35.8059 26.2438C35.8549 26.2948 35.8476 26.3618 35.8151 26.4282C35.7096 26.35 35.5472 26.3557 35.4228 26.4142C35.4344 26.3874 35.45 26.3577 35.4656 26.328C35.5363 26.2032 35.6443 26.1133 35.767 26.0867C35.755 26.1386 35.7609 26.1898 35.8059 26.2438V26.2438ZM35.3379 25.8155C35.4158 25.7781 35.5024 25.7528 35.5897 25.7456C35.417 25.8142 35.2579 25.9531 35.1554 26.1193C35.1013 26.1212 35.0536 26.1493 35.0235 26.2018C35.0638 26.0433 35.178 25.8934 35.3379 25.8155Z" fill="#BB6938"/>
<path d="M38.3789 29.1548C37.8123 29.0872 36.9814 29.561 36.9797 30.1849C36.9805 30.2891 36.9977 30.3816 37.0259 30.4723C36.6314 30.7127 36.2368 30.953 35.8452 31.1974C35.6576 31.3138 35.8115 31.6224 36.0033 31.5031L37.2031 30.7704C37.258 30.8296 37.314 30.8819 37.3793 30.9213C37.4903 31.0758 37.656 31.2033 37.8669 31.2737C38.4448 31.4688 39.3029 31.1358 39.467 30.5061C39.615 29.9313 38.9233 29.226 38.3818 29.1589L38.3789 29.1548ZM38.6731 29.6586C38.6464 29.6901 38.6314 29.7379 38.6373 29.7891C38.6391 29.8002 38.6368 29.8141 38.6386 29.8252C38.5061 29.6923 38.3411 29.5827 38.1651 29.5181C38.3397 29.5036 38.5168 29.5613 38.6719 29.6656L38.6731 29.6586ZM37.669 29.8314C37.734 29.7847 37.8137 29.7583 37.8876 29.7668C38.0116 29.7763 38.1504 29.8493 38.2705 29.9479C38.1709 29.9208 38.0777 29.8768 37.9826 29.8218C37.8649 29.7523 37.751 29.8341 37.724 29.9337L37.7158 29.9396C37.7116 29.8994 37.6964 29.861 37.6719 29.8355L37.669 29.8314ZM38.3209 30.67C38.2976 30.6806 38.2674 30.69 38.2441 30.7005C38.3073 30.5997 38.3297 30.4849 38.3119 30.3744C38.3369 30.3749 38.362 30.3754 38.3928 30.3841C38.4505 30.4043 38.4988 30.3942 38.5354 30.3679C38.541 30.4872 38.4837 30.5962 38.3209 30.67V30.67ZM38.9408 30.4774C38.9607 30.5309 38.994 30.5686 39.0377 30.5865C38.9913 30.6507 38.9351 30.7096 38.87 30.7564C38.9029 30.6649 38.9219 30.5711 38.9408 30.4774V30.4774Z" fill="#BB6938"/>
<path d="M40.9413 33.0902C40.8337 33.1121 40.7366 33.1572 40.6413 33.2133C40.3383 33.2892 40.0647 33.492 39.9253 33.7956C39.7662 34.1319 39.8015 34.4642 39.9478 34.7536C39.586 35.0136 39.234 35.2789 38.8721 35.5389C38.6688 35.685 38.8915 36.012 39.0919 35.8619L40.1757 35.0707C40.3777 35.2832 40.6448 35.4489 40.9285 35.5348C41.6752 35.7504 42.3135 35.0513 42.3441 34.3388C42.3734 33.5902 41.708 32.9216 40.9454 33.0873L40.9413 33.0902ZM41.0689 34.3488C40.9732 34.2757 40.8972 34.17 40.7732 34.1605C40.873 34.0333 40.9803 33.9253 41.031 33.9444C41.1773 33.9935 41.165 34.1995 41.0758 34.3499L41.0689 34.3488ZM41.1237 34.8026C41.1767 34.8077 41.2308 34.8058 41.2878 34.808C41.4793 34.7999 41.5078 34.5821 41.4068 34.4759C41.485 34.3273 41.5374 34.1601 41.5428 33.9959C41.5422 33.9779 41.5415 33.9598 41.538 33.9377C41.6773 34.226 41.6225 34.6045 41.3437 34.8171C41.1707 34.9538 40.8886 35.0332 40.6805 34.9238C40.6776 34.9197 40.6747 34.9157 40.6648 34.9105C40.8232 34.9507 40.9843 34.909 41.1196 34.8056L41.1237 34.8026Z" fill="#BB6938"/>
<path d="M41.1673 39.4699C41.5734 39.2027 41.9794 38.9356 42.3855 38.6684C42.7309 38.969 43.2802 39.0984 43.6885 39.0146C44.4279 38.8594 44.9901 38.0546 44.5581 37.3847C44.5406 36.9657 44.3557 36.6054 43.8236 36.5684C43.6676 36.5573 43.4826 36.5915 43.2989 36.6619C43.0002 36.6238 42.704 36.6578 42.45 36.7848C42.1565 36.934 41.9548 37.2454 42.0542 37.581C42.0712 37.6304 42.0894 37.6728 42.1145 37.7164C42.0879 37.791 42.0695 37.8597 42.061 37.9337C42.0469 38.0856 42.0752 38.2194 42.1308 38.3397C41.7288 38.604 41.3309 38.8653 40.9318 39.1336C40.7104 39.2803 40.9419 39.6195 41.1632 39.4728L41.1673 39.4699ZM43.374 38.1308C43.2307 38.0858 43.0669 37.9692 42.9246 37.8742C42.942 37.8555 42.9594 37.8368 42.9878 37.8164C43.0782 37.659 43.1847 37.6441 43.3131 37.78C43.4697 37.8092 43.5491 37.8939 43.5501 38.0412C43.4932 38.0821 43.4345 38.112 43.374 38.1308V38.1308ZM43.4171 37.101C43.4171 37.101 43.4689 37.1131 43.4928 37.1206C43.458 37.1579 43.429 37.2034 43.41 37.2541C43.2783 37.2254 43.1358 37.2415 43.0015 37.2948C43.1113 37.216 43.2269 37.1452 43.3402 37.0884C43.3641 37.0959 43.3891 37.0964 43.413 37.1039L43.4171 37.101ZM43.8606 38.5333C43.9285 38.4475 43.9619 38.331 43.9714 38.207C43.9877 38.1954 44.004 38.1837 44.0173 38.1679C43.9954 38.2576 44.0399 38.3366 44.1 38.3859C44.0326 38.4467 43.9525 38.4981 43.8635 38.5374L43.8606 38.5333Z" fill="#BB6938"/>
<path d="M69.6377 38.9554C69.6679 40.3703 68.2114 41.3121 67.2183 42.075C65.994 43.0226 64.7295 43.9312 63.3925 44.7132C62.031 45.5127 60.5842 46.1763 59.0593 46.5939C57.6844 46.9714 56.0205 47.2299 54.8119 46.2858C54.5062 46.0492 54.1193 46.506 54.4249 46.7426C55.5794 47.6456 57.0758 47.6431 58.4538 47.3557C60.2553 46.9798 61.9533 46.2283 63.5414 45.3152C65.165 44.3828 66.6792 43.2639 68.1461 42.105C69.1723 41.2936 70.2568 40.3232 70.2265 38.9083C70.2185 38.5196 69.6226 38.5655 69.6277 38.9502L69.6377 38.9554Z" fill="white"/>
</svg>
