<svg width="110" height="108" viewBox="0 0 110 108" fill="none" xmlns="http://www.w3.org/2000/svg">
<path d="M62.202 84.0751C58.867 83.9479 49.8549 84.0412 46.5199 84.3212C45.7986 84.3806 45.6629 88.4539 46.9782 88.5303C48.633 88.6236 51.0854 88.5133 52.7486 88.5048C54.3695 88.4963 60.5727 88.4879 62.1935 88.4794C63.4749 88.4794 62.9318 84.1091 62.1935 84.0836L62.202 84.0751Z" fill="#3A3A3A"/>
<path d="M74.3105 46.4738C71.4847 41.6877 68.3194 36.6725 67.98 30.9105C67.8697 29.0776 67.8187 24.597 70.1439 24.0793C71.1368 23.8587 72.0872 24.1981 72.9612 23.4853C73.6486 22.9252 73.8608 21.9833 73.6486 21.1262C73.131 19.0047 70.7379 18.6907 68.9983 19.2338C66.9871 19.8533 65.3408 21.3553 64.2461 23.1628C61.5052 27.6859 62.4641 33.5073 63.4824 38.4206C64.7553 44.5899 66.8429 50.6235 67.4029 56.9285C67.5387 58.456 67.5811 60.0005 67.5048 61.5364C67.4199 63.0639 67.3265 64.8035 66.6222 66.1782C65.8585 67.6548 64.0764 68.4695 62.9053 66.942C61.904 65.6352 62.1416 63.8276 62.3114 62.2917C62.3538 61.8843 62.1162 61.6467 61.8192 61.5789C61.7258 61.5279 61.6155 61.494 61.4797 61.4855C59.3158 61.4516 49.6587 61.4516 47.4948 61.4855C47.359 61.4855 47.2487 61.5194 47.1554 61.5789C46.8584 61.6467 46.6208 61.8843 46.6632 62.2917C46.8244 63.8276 47.0705 65.6352 46.0692 66.942C44.8981 68.461 43.1161 67.6463 42.3523 66.1782C41.6395 64.8035 41.5461 63.0639 41.4698 61.5364C41.3849 60.0005 41.4359 58.4645 41.5716 56.9285C42.1317 50.6235 44.2193 44.5814 45.4921 38.4206C46.502 33.5073 47.4609 27.6859 44.7284 23.1628C43.6337 21.3468 41.979 19.8533 39.9763 19.2338C38.2366 18.6992 35.8351 19.0047 35.3259 21.1262C35.1223 21.9833 35.3259 22.9252 36.0133 23.4853C36.8873 24.1981 37.8378 23.8587 38.8306 24.0793C41.1558 24.597 41.0964 29.0691 40.9945 30.9105C40.6636 36.6725 37.4899 41.6877 34.664 46.4738C29.4961 55.2398 25.4313 65.9406 29.9543 75.9286C31.8806 80.1801 35.2326 83.4387 39.5265 85.0341C44.0495 86.7058 64.9504 86.7058 69.4735 85.0341C73.7759 83.4387 77.1194 80.1886 79.0457 75.9286C83.5687 65.9406 79.5039 55.2398 74.336 46.4738H74.3105Z" fill="#4F4F4F"/>
<path d="M62.6935 59.1943C59.1464 59.067 49.5658 59.1604 46.0101 59.4404C45.2464 59.4998 45.1021 63.5731 46.5023 63.6495C48.2674 63.7428 50.8726 63.6325 52.6377 63.624C54.3688 63.6155 60.9624 63.607 62.685 63.5985C64.0513 63.5985 63.4742 59.2283 62.685 59.2028L62.6935 59.1943Z" fill="#3A3A3A"/>
<path d="M62.1261 27.2361C62.1346 27.1173 62.0498 27.0155 61.9395 27.007C61.8207 26.9985 61.7188 27.0834 61.7103 27.1937C60.726 38.3103 60.4374 49.6136 60.8617 60.7897C60.8617 60.9 60.9551 60.9933 61.0739 60.9933C61.1927 60.9933 61.2775 60.8915 61.2775 60.7727C60.8532 49.6221 61.1333 38.3358 62.1261 27.2361Z" fill="#EC8446"/>
<path d="M59.7074 27.007C59.5886 27.007 59.4953 27.0919 59.4868 27.2107C59.1134 38.3358 59.071 49.6391 59.3765 60.7897C59.3765 60.9 59.4698 60.9933 59.5886 60.9933C59.7074 60.9933 59.7923 60.8915 59.7923 60.7812C59.4953 49.6391 59.5292 38.3528 59.9026 27.2277C59.9026 27.1089 59.8177 27.0155 59.6989 27.007H59.7074Z" fill="#EC8446"/>
<path d="M57.4016 27.007C57.2828 27.007 57.1895 27.1004 57.1895 27.2192L57.2234 60.7812C57.2234 60.9 57.3168 60.9933 57.4356 60.9933C57.5544 60.9933 57.6477 60.9 57.6477 60.7812L57.6138 27.2192C57.6138 27.1004 57.5204 27.007 57.4016 27.007V27.007Z" fill="#EC8446"/>
<path d="M54.6939 27.007C54.5751 27.007 54.4902 27.1088 54.4902 27.2192L55.3728 60.7812C55.3728 60.8915 55.4661 60.9849 55.5849 60.9849C55.7037 60.9849 55.7886 60.883 55.7886 60.7727L54.906 27.2107C54.906 27.0919 54.8042 26.9985 54.6939 27.007V27.007Z" fill="#EC8446"/>
<path d="M53.3187 27.007C53.1999 27.007 53.1065 27.1004 53.1065 27.2192C53.0726 38.3613 53.3272 49.6646 53.8618 60.7982C53.8618 60.9085 53.9636 61.0018 54.0739 61.0018H54.0824C54.2012 61.0018 54.2861 60.9 54.2776 60.7812C53.743 49.6561 53.4884 38.3613 53.5223 27.2277C53.5223 27.1089 53.429 27.0155 53.3102 27.0155L53.3187 27.007Z" fill="#EC8446"/>
<path d="M49.1686 27.007C49.0583 27.024 48.9735 27.1343 48.9904 27.2446C50.6367 37.903 51.1034 49.8088 50.3058 60.7642C50.3058 60.883 50.3821 60.9763 50.5009 60.9848H50.5179C50.6282 60.9848 50.7216 60.9 50.7301 60.7897C51.5362 49.8088 51.061 37.869 49.4147 27.1767C49.3978 27.0664 49.2874 26.9815 49.1771 26.9985L49.1686 27.007Z" fill="#EC8446"/>
<path d="M47.0642 27.1852C47.0472 27.0749 46.9369 26.9985 46.8266 27.0155C46.7163 27.0325 46.6314 27.1428 46.6569 27.2531C48.4899 38.2085 48.5068 49.7918 46.6993 60.7472C46.6823 60.8575 46.7587 60.9679 46.869 60.9848C46.8775 60.9848 46.8945 60.9848 46.903 60.9848C47.0048 60.9848 47.0896 60.9085 47.1066 60.8066C48.9226 49.8003 48.9141 38.1745 47.0642 27.1682V27.1852Z" fill="#EC8446"/>
<path d="M51.3412 27.007C51.2224 27.0155 51.1375 27.1173 51.1545 27.2361C52.1389 38.3188 52.351 49.6052 51.791 60.7727C51.791 60.8915 51.8758 60.9849 51.9861 60.9933H51.9946C52.1049 60.9933 52.1983 60.9085 52.2068 60.7982C52.7753 49.6137 52.5632 38.3103 51.5703 27.2022C51.5618 27.0834 51.46 27.007 51.3412 27.0155V27.007Z" fill="#EC8446"/>
<path d="M47.6508 27.007C47.5405 27.024 47.4557 27.1343 47.4811 27.2446C49.2377 37.9794 49.4669 49.8852 48.143 60.7472C48.1261 60.866 48.2109 60.9679 48.3297 60.9848H48.3552C48.457 60.9848 48.5504 60.9085 48.5673 60.7981C49.8996 49.8937 49.662 37.9454 47.9054 27.1767C47.8884 27.0664 47.7781 26.9815 47.6678 27.007H47.6508Z" fill="#EC8446"/>
<path d="M70.4662 25.9462C59.8418 25.3777 49.1918 25.3267 38.5589 25.785C36.692 25.8614 36.6157 29.0606 38.4911 28.9842C49.124 28.5259 59.7739 28.5769 70.3983 29.1454C72.2737 29.2473 72.3331 26.048 70.4662 25.9462Z" fill="#333333"/>
<path d="M71.392 81.19C71.5447 81.1645 71.6975 81.1051 71.8502 81.0373C71.9266 81.0033 72.003 80.9609 72.0709 80.9184C72.1388 80.8675 72.2151 80.8166 72.283 80.7657C72.5546 80.5451 72.8261 80.2905 73.0722 80.0274C76.7382 75.9796 78.5626 70.4892 78.0789 65.2109C78.0195 64.6763 77.8074 63.9889 77.3916 63.9804C76.9927 63.9804 76.857 64.5575 76.8315 65.0157C76.7042 66.5602 76.4157 68.0707 75.9998 69.5303C75.2616 72.0761 74.1584 74.503 72.6649 76.7264C72.5121 76.9385 72.3254 77.1761 72.1302 77.4222C71.9351 77.6683 71.689 77.9144 71.4769 78.169L71.3156 78.3642L71.1459 78.5424C71.0356 78.6612 70.9252 78.78 70.8234 78.9073C70.7216 79.0261 70.6282 79.1534 70.5434 79.2722C70.45 79.3825 70.3737 79.5013 70.2973 79.6116C69.7966 80.4178 70.5519 81.3597 71.392 81.1985V81.19Z" fill="white"/>
</svg>
