<svg width="110" height="108" viewBox="0 0 110 108" fill="none" xmlns="http://www.w3.org/2000/svg">
<path d="M17.2905 38.9875C37.1602 35.7276 57.1099 36.4176 76.0396 40.6875C81.3495 41.8875 86.5695 43.3675 91.6994 45.1174C93.0394 45.5774 92.5894 47.5374 91.2594 47.0774C73.2197 40.8775 53.8999 38.1175 34.3202 39.1575C28.8303 39.4475 23.3304 40.0375 17.8305 40.9275C16.4005 41.1675 15.8205 39.2375 17.3005 38.9975L17.2905 38.9875Z" fill="black"/>
<path d="M23.1608 62.5272C39.2206 56.8272 56.5003 54.1673 74.0701 54.9273C78.99 55.1373 83.9399 55.6173 88.8799 56.3772C90.1699 56.5772 90.7398 54.6573 89.4099 54.4473C71.5101 51.6873 53.6204 52.4773 36.7006 56.4672C31.9607 57.5872 27.2908 58.9572 22.7208 60.5772C21.5309 61.0072 21.9808 62.9571 23.1608 62.5372V62.5272Z" fill="black"/>
<path d="M32.7595 64.577C32.7895 64.767 32.9895 64.877 33.1695 64.847C35.7994 64.3671 38.4494 63.9671 41.0994 63.6571C41.2893 63.6371 41.4293 63.4571 41.4093 63.2671C40.1394 51.3472 39.1294 41.8174 37.8694 31.5775C37.8694 31.5075 37.8394 31.4575 37.8094 31.4175C37.7894 31.2475 37.6294 31.0875 37.3394 31.1275C34.1994 31.5375 31.0695 32.0475 27.9595 32.6575C27.7195 32.7075 27.5595 32.8875 27.5895 33.0775C29.2895 43.5774 31.0095 54.0872 32.7595 64.577V64.577Z" fill="#3A3A3A"/>
<path d="M22.93 67.327C22.98 67.517 23.19 67.627 23.37 67.577C25.9599 66.897 28.5599 66.297 31.1698 65.767C31.3498 65.727 31.4798 65.537 31.4398 65.347C29.3899 54.3472 27.3399 43.2774 25.2199 32.8175C25.2099 32.7475 25.1799 32.6975 25.1399 32.6575C25.1099 32.4775 24.9299 32.3275 24.6399 32.3875C21.52 33.0475 18.42 33.8075 15.3401 34.6675C15.1001 34.7375 14.9601 34.9375 15.0101 35.1275C17.63 45.8673 20.26 56.5972 22.93 67.327Z" fill="#3A3A3A"/>
<path d="M83.7971 36.0475C83.8271 35.8975 83.6571 35.7475 83.4571 35.7075C80.5972 35.2175 77.7272 34.8075 74.8573 34.4675C74.6573 34.4475 74.4673 34.5575 74.4573 34.7075C73.3073 44.2574 71.4673 60.5271 71.4773 60.5671C71.4573 60.7071 71.5473 60.8571 71.7573 60.8771C74.0273 61.1071 76.3072 61.3971 78.5772 61.7271C78.7572 61.7571 78.9072 61.6471 78.9372 61.4971C80.5472 53.0072 82.1672 44.5174 83.8072 36.0275L83.7971 36.0475Z" fill="#3A3A3A"/>
<path d="M94.6304 40.0874C94.6604 39.9574 94.5104 39.8074 94.3104 39.7574C91.5104 39.0674 88.7004 38.4474 85.8805 37.9175C85.6805 37.8775 85.4905 37.9575 85.4705 38.0875C83.8705 46.3573 81.2605 60.4471 81.2705 60.4871C81.2505 60.6071 81.3306 60.7471 81.5405 60.7871C83.8305 61.1971 86.1105 61.6571 88.3804 62.1671C88.5604 62.2071 88.7104 62.1371 88.7504 62.0071C90.7004 54.6972 92.6604 47.3873 94.6404 40.0874H94.6304Z" fill="#3A3A3A"/>
<path d="M39.7507 32.3676C40.7907 42.4374 41.9607 52.4873 43.1706 62.5371C43.1906 62.7271 43.3606 62.8571 43.5406 62.8371C45.4406 62.6571 47.3306 62.5071 49.2306 62.4071C50.8605 62.3771 50.6105 61.3571 50.6205 59.2172C50.6605 52.6873 49.7605 31.9376 49.4505 31.4476C48.9006 30.4776 42.3307 31.3476 40.4407 31.6076C39.9307 31.6676 39.7107 32.0176 39.7507 32.3476V32.3676Z" fill="#3A3A3A"/>
<path d="M62.9508 33.2875C62.5809 42.3973 62.3309 51.5072 62.1309 60.6171C62.1309 60.7871 62.2709 60.9271 62.4409 60.9371C64.2808 61.0271 66.1208 61.1471 67.9608 61.3171C69.5308 61.5071 69.1508 61.4771 69.4308 59.5771C70.2907 53.7572 71.1807 47.9473 71.7407 42.0973C71.8807 40.6174 72.0107 39.1474 72.1207 37.6674C72.1707 36.9574 72.2207 36.2374 72.2707 35.5274C72.3007 35.0574 72.3807 34.2475 72.1807 33.7675C71.7907 32.8275 65.5108 32.7475 63.7008 32.7275C63.2208 32.7075 62.9608 32.9975 62.9508 33.2975V33.2875Z" fill="#3A3A3A"/>
<path d="M52.329 61.3171C52.329 61.5171 52.489 61.6671 52.659 61.6671C54.9889 61.5771 57.3189 61.5471 59.6589 61.5771C59.8289 61.5771 59.9789 61.4071 59.9789 61.2171C60.2289 51.4473 60.5189 41.6774 60.9189 31.9075C60.9189 31.7075 60.7389 31.5475 60.5389 31.5375C57.8089 31.4675 55.0689 31.4575 52.339 31.5175C52.119 31.5175 51.999 31.6675 51.979 31.8375C51.979 31.8675 51.959 31.9075 51.959 31.9475C52.069 41.7374 52.189 51.5273 52.329 61.3171Z" fill="#3A3A3A"/>
<path d="M89.4712 40.6776C90.6212 40.9276 90.2712 42.7176 89.1212 42.4676C87.9712 42.2176 88.3212 40.4276 89.4712 40.6776Z" fill="#484848"/>
<path d="M85.7505 57.6173C86.9005 57.8673 86.5505 59.6573 85.4005 59.4073C84.2505 59.1573 84.6005 57.3673 85.7505 57.6173Z" fill="#484848"/>
<path d="M78.7493 37.0477C79.9193 37.2077 79.7093 39.0176 78.5393 38.8576C77.3693 38.6976 77.5793 36.8877 78.7493 37.0477Z" fill="#484848"/>
<path d="M75.8801 57.3673C77.0501 57.5273 76.8401 59.3373 75.6701 59.1773C74.5002 59.0173 74.7102 57.2073 75.8801 57.3673Z" fill="#484848"/>
<path d="M67.7926 35.1976C68.9626 35.2876 68.8826 37.0976 67.7026 37.0176C66.5326 36.9276 66.6126 35.1176 67.7926 35.1976Z" fill="#484848"/>
<path d="M66.193 57.2574C67.363 57.3474 67.283 59.1574 66.103 59.0774C64.933 58.9874 65.013 57.1774 66.193 57.2574Z" fill="#484848"/>
<path d="M56.1602 33.6777C57.3401 33.6777 57.3801 35.4976 56.2002 35.4976C55.0202 35.4976 54.9802 33.6777 56.1602 33.6777Z" fill="#484848"/>
<path d="M56.1602 57.6473C57.3401 57.6473 57.3801 59.4673 56.2002 59.4673C55.0202 59.4673 54.9802 57.6473 56.1602 57.6473Z" fill="#484848"/>
<path d="M44.2015 33.1876C45.3715 33.1076 45.5515 34.9176 44.3715 34.9976C43.2015 35.0776 43.0215 33.2676 44.2015 33.1876Z" fill="#484848"/>
<path d="M46.012 58.8473C47.182 58.7673 47.362 60.5773 46.182 60.6573C45.0121 60.7373 44.8321 58.9273 46.012 58.8473Z" fill="#484848"/>
<path d="M32.5215 34.3778C33.6815 34.1978 34.0115 35.9877 32.8415 36.1677C31.6815 36.3477 31.3516 34.5577 32.5215 34.3778Z" fill="#484848"/>
<path d="M36.4415 59.7974C37.6014 59.6174 37.9314 61.4074 36.7615 61.5874C35.6015 61.7674 35.2715 59.9774 36.4415 59.7974Z" fill="#484848"/>
<path d="M19.7007 35.7977C20.8406 35.5177 21.3206 37.2677 20.1807 37.5577C19.0407 37.8377 18.5607 36.0877 19.7007 35.7977Z" fill="#484848"/>
<path d="M26.2905 62.5273C27.4305 62.2473 27.9105 63.9973 26.7705 64.2873C25.6305 64.5673 25.1505 62.8173 26.2905 62.5273Z" fill="#484848"/>
<path d="M41.4696 70.207C41.1697 69.817 41.1297 69.2371 41.5396 68.8971C47.8296 63.5571 58.6294 54.3173 64.9293 48.9774C65.3793 48.5574 65.8393 48.1474 66.2893 47.7274C65.7793 47.2574 64.9793 46.4174 64.5693 46.0174C64.3093 45.7574 64.2293 45.1974 64.4693 44.8974C65.2093 43.9974 65.9393 43.0474 67.1293 42.3575C68.1593 41.7575 68.4192 41.6975 69.1092 42.5174C69.9892 43.5574 72.0592 46.5474 72.8392 47.6674C73.4192 48.5174 70.4592 51.6673 69.3892 50.6573C68.7593 50.0673 68.5193 49.7773 67.7193 49.0474L66.1793 50.3573C60.0994 55.9573 49.4295 65.3671 43.1896 70.787C42.8296 71.097 42.1896 71.127 41.8796 70.717L41.4796 70.207H41.4696Z" fill="#D37842"/>
<path d="M44.0524 79.5369C43.6024 79.3569 43.2724 78.8669 43.4524 78.3669C46.2123 70.587 50.9123 57.1772 53.6722 49.3973C53.8522 48.8073 54.0422 48.2273 54.2222 47.6373C53.5522 47.4873 52.4323 47.1673 51.8823 47.0273C51.5323 46.9373 51.1723 46.4873 51.2323 46.1073C51.4223 44.9574 51.5823 43.7674 52.2523 42.5774C52.8422 41.5374 53.0322 41.3574 54.0422 41.7174C55.3222 42.1674 58.6222 43.7174 59.8521 44.2974C60.7821 44.7374 59.8021 48.9473 58.3622 48.6173C57.5222 48.4273 57.1722 48.2873 56.1122 48.0573L55.4322 49.9673C52.9822 57.8572 48.4823 71.357 45.8124 79.1769C45.6624 79.6269 45.1224 79.9668 44.6424 79.7768L44.0424 79.5369H44.0524Z" fill="#EC8446"/>
</svg>
